<svg width="593" height="527" xmlns="http://www.w3.org/2000/svg">
 <!-- Created with Method Draw - http://github.com/duopixel/Method-Draw/ -->

 <g>
  <title>background</title>
  <rect fill="#fff" id="canvas_background" height="529" width="595" y="-1" x="-1"/>
  <g display="none" overflow="visible" y="0" x="0" height="100%" width="100%" id="canvasGrid">
   <rect fill="url(#gridpattern)" stroke-width="0" y="63.608608" x="6.295349" height="400" width="580"/>
  </g>
 </g>
 <g>
  <title>Layer 1</title>
  <g stroke="null" id="svg_5">
   <path stroke="null" id="svg_4" fill="#04B500" d="m295.296325,527.217235c-8.436544,0 -16.570866,-3.055803 -22.909632,-8.608396c-23.938768,-20.932348 -47.018276,-40.604448 -67.381735,-57.955561l-0.104691,-0.090864c-59.700944,-50.876054 -111.255319,-94.812849 -147.125742,-138.09384c-40.097782,-48.38519 -58.774524,-94.259762 -58.774524,-144.3771c0,-48.692548 16.696495,-93.614429 47.010572,-126.496605c30.675756,-33.270917 72.767217,-51.594869 118.53453,-51.594869c34.206028,0 65.534426,10.814421 93.107762,32.140645c13.916051,10.764643 26.530373,23.93936 37.64346,39.306473c11.117038,-15.367113 23.725434,-28.54183 37.647411,-39.306473c27.573336,-21.326224 58.899759,-32.140645 93.106182,-32.140645c45.763955,0 87.859761,18.323952 118.536308,51.594869c30.313089,32.882176 47.004449,77.804057 47.004449,126.496605c0,50.117338 -18.670619,95.99191 -58.769388,144.37315c-35.869633,43.284942 -87.419268,87.217786 -147.1131,138.087914c-20.399014,17.380742 -43.514078,37.082473 -67.508155,58.066178c-6.334815,5.542717 -14.473088,8.598519 -22.903706,8.598519zm-130.751222,-492.504146c-35.956349,0 -68.987661,14.350026 -93.017293,40.40988c-24.386965,26.452941 -37.819263,63.019858 -37.819263,102.968504c0,42.150918 15.665779,79.847711 50.790326,122.227962c33.94904,40.96593 84.445243,83.998033 142.912014,133.825198l0.108642,0.090864c20.440496,17.420249 43.610868,37.167411 67.727414,58.255808c24.258768,-21.127903 47.466671,-40.908646 67.946673,-58.354573c58.463215,-49.827165 108.954084,-92.851367 142.903717,-133.817297c35.119016,-42.380251 50.78519,-80.077045 50.78519,-122.227962c0,-39.948646 -13.4321,-76.515563 -37.819263,-102.968504c-24.025681,-26.059854 -57.060746,-40.40988 -93.013342,-40.40988c-26.338768,0 -50.522474,8.373137 -71.875562,24.884348c-19.030125,14.720594 -32.284448,33.329583 -40.057288,46.350424c-3.99605,6.695902 -11.0321,10.692544 -18.820743,10.692544c-7.790618,0 -14.824693,-3.996642 -18.822718,-10.692544c-7.766914,-13.020841 -21.023212,-31.62983 -40.057288,-46.350424c-21.353088,-16.511211 -45.535807,-24.884348 -71.871217,-24.884348z"/>
  </g>
  <path id="svg_10" d="m299.821854,175.000611c105.741588,-252.937366 520.040596,0 0,325.205184c-520.040596,-325.205184 -105.741588,-578.14255 0,-325.205184z" stroke-width="1.5" stroke="#04b500" fill="#04b500"/>
  <ellipse ry="100.000002" rx="64.705884" id="svg_11" cy="192.323519" cx="96.499995" stroke-width="1.5" stroke="#04b500" fill="#04b500"/>
  <ellipse ry="64.117649" rx="91.176473" id="svg_12" cy="158.794106" cx="314.735295" stroke-width="1.5" stroke="#04b500" fill="#04b500"/>
  <ellipse ry="62.352943" rx="89.411767" id="svg_13" cy="88.794104" cx="408.264709" stroke-width="1.5" stroke="#04b500" fill="#04b500"/>
  <ellipse ry="94.705885" rx="79.411767" id="svg_14" cy="136.441164" cx="500.617652" stroke-width="1.5" stroke="#04b500" fill="#04b500"/>
  <ellipse ry="64.705884" rx="120.000003" id="svg_15" cy="93.499987" cx="178.852938" stroke-width="1.5" stroke="#04b500" fill="#04b500"/>
  <ellipse ry="76.47059" rx="39.411766" id="svg_16" cy="154.676459" cx="79.441171" stroke-width="1.5" stroke="#04b500" fill="#04b500"/>
  <ellipse ry="23.529412" rx="35.294119" id="svg_17" cy="140.558812" cx="50.617641" stroke-width="1.5" stroke="#04b500" fill="#04b500"/>
  <ellipse ry="29.411765" rx="44.705883" id="svg_18" cy="59.382339" cx="457.676474" stroke-width="1.5" stroke="#04b500" fill="#04b500"/>
  <ellipse ry="0.588235" id="svg_19" cy="297.617639" cx="940.029427" stroke-width="1.5" stroke="#04b500" fill="#04b500"/>
 </g>
</svg>