<svg width="20" height="20" viewBox="0 0 20 20" fill="none" xmlns="http://www.w3.org/2000/svg">
<g clip-path="url(#clip0_1_2673)">
<path d="M9.99999 0C4.66996 0 1.22868 5.64828 3.62019 10.3715L7.29093 18.2715C8.36249 20.5778 11.6391 20.5745 12.7091 18.2715L16.3799 10.3714C18.7704 5.65009 15.3324 0 9.99999 0V0ZM15.2544 9.81197C15.247 9.82642 15.4205 9.45338 11.5693 17.7419C10.9477 19.0796 9.05296 19.0809 8.43071 17.7419C4.59404 9.48464 4.75338 9.82713 4.74576 9.81205C2.78526 5.95526 5.57036 1.25683 9.99999 1.25683C14.4271 1.25683 17.2161 5.9522 15.2544 9.81197Z" fill="#A0A0A0"/>
<path d="M10.0001 3.65601C8.07476 3.65601 6.50836 5.22241 6.50836 7.14775C6.50836 9.07309 8.07476 10.6395 10.0001 10.6395C11.9254 10.6395 13.4918 9.07309 13.4918 7.14775C13.4918 5.22241 11.9255 3.65601 10.0001 3.65601ZM10.0001 9.3827C8.76775 9.3827 7.76519 8.38015 7.76519 7.14779C7.76519 5.91543 8.76775 4.91287 10.0001 4.91287C11.2325 4.91287 12.235 5.91543 12.235 7.14779C12.235 8.38015 11.2325 9.3827 10.0001 9.3827Z" fill="#A0A0A0"/>
</g>
<defs>
<clipPath id="clip0_1_2673">
<rect width="20" height="20" fill="white"/>
</clipPath>
</defs>
</svg>
