<svg width="43" height="44" viewBox="0 0 43 44" fill="none" xmlns="http://www.w3.org/2000/svg">
<g clip-path="url(#clip0_1_1949)">
<path d="M0.955551 16.1505C1.5131 15.451 2.34954 15.0497 3.25056 15.0497H11.382L15.7913 4.95323C16.0647 4.32724 16.7938 4.04117 17.4199 4.3147C18.046 4.58808 18.3319 5.31732 18.0584 5.94339L14.0815 15.0498H28.7981L24.8212 5.94339C24.5479 5.31732 24.8337 4.58816 25.4598 4.3147C26.0858 4.04117 26.815 4.32707 27.0884 4.95323L31.4977 15.0498H39.6291C40.5301 15.0498 41.3666 15.451 41.9241 16.1505C42.4715 16.8373 42.6734 17.7202 42.4782 18.573L38.1358 37.5401C37.8326 38.8644 36.661 39.7894 35.2868 39.7894H7.59293C6.21865 39.7894 5.04706 38.8644 4.74384 37.5401L0.401463 18.573C0.206268 17.7201 0.40823 16.8372 0.955551 16.1505ZM7.59293 37.3153H35.2868C35.4968 37.3153 35.6808 37.1776 35.7242 36.9878L40.0666 18.0209C40.1007 17.8721 40.0435 17.7601 39.9894 17.6924C39.9393 17.6294 39.8257 17.5237 39.6291 17.5237H32.5781L32.9021 18.2657C33.1755 18.8918 32.8896 19.6209 32.2636 19.8944C32.1024 19.9648 31.9345 19.9981 31.7692 19.9981C31.2924 19.9981 30.838 19.7208 30.635 19.2559L29.8785 17.5239H13.001L12.2446 19.2559C12.0415 19.7209 11.5871 19.9981 11.1103 19.9981C10.9451 19.9981 10.7771 19.9648 10.6159 19.8944C9.98987 19.621 9.70396 18.8918 9.97741 18.2657L10.3014 17.5237H3.25039C3.05379 17.5237 2.94024 17.6294 2.8901 17.6924C2.83609 17.7602 2.77885 17.8722 2.81291 18.0208L7.15529 36.9879C7.19883 37.1776 7.38289 37.3153 7.59293 37.3153Z" fill="black"/>
<path d="M28.8616 22.8838C29.5447 22.8838 30.0986 23.4376 30.0986 24.1208V33.192C30.0986 33.8751 29.5447 34.4289 28.8616 34.4289C28.1785 34.4289 27.6246 33.8751 27.6246 33.192V24.1208C27.6246 23.4376 28.1784 22.8838 28.8616 22.8838Z" fill="black"/>
<path d="M21.4397 22.8838C22.1229 22.8838 22.6767 23.4376 22.6767 24.1208V33.192C22.6767 33.8751 22.1229 34.4289 21.4397 34.4289C20.7566 34.4289 20.2027 33.8751 20.2027 33.192V24.1208C20.2027 23.4376 20.7566 22.8838 21.4397 22.8838Z" fill="black"/>
<path d="M14.0178 22.8838C14.701 22.8838 15.2548 23.4376 15.2548 24.1208V33.192C15.2548 33.8751 14.701 34.4289 14.0178 34.4289C13.3347 34.4289 12.7809 33.8751 12.7809 33.192V24.1208C12.781 23.4376 13.3347 22.8838 14.0178 22.8838Z" fill="black"/>
</g>
<defs>
<clipPath id="clip0_1_1949">
<rect width="42.2222" height="42.2222" fill="white" transform="matrix(-1 0 0 1 42.5509 0.888916)"/>
</clipPath>
</defs>
</svg>
