<svg width="20" height="20" viewBox="0 0 20 20" fill="none" xmlns="http://www.w3.org/2000/svg">
<g clip-path="url(#clip0_1_1980)">
<path d="M9.8575 9.63406C11.181 9.63406 12.3271 9.15936 13.2636 8.22278C14.2 7.28635 14.6747 6.14057 14.6747 4.81688C14.6747 3.49364 14.2 2.34771 13.2634 1.41097C12.3268 0.474699 11.1809 0 9.8575 0C8.5338 0 7.38802 0.474699 6.45158 1.41113C5.51515 2.34756 5.0403 3.49349 5.0403 4.81688C5.0403 6.14057 5.51515 7.2865 6.45174 8.22293C7.38832 9.1592 8.53426 9.63406 9.8575 9.63406Z" fill="white"/>
<path d="M18.2863 15.3789C18.2592 14.9891 18.2046 14.564 18.1242 14.1151C18.043 13.6629 17.9385 13.2353 17.8134 12.8445C17.6841 12.4406 17.5084 12.0418 17.2911 11.6595C17.0656 11.2628 16.8007 10.9174 16.5034 10.6331C16.1926 10.3357 15.812 10.0966 15.372 9.92218C14.9334 9.74869 14.4474 9.6608 13.9276 9.6608C13.7234 9.6608 13.526 9.74457 13.1447 9.99283C12.91 10.1459 12.6355 10.3229 12.3291 10.5186C12.0671 10.6856 11.7122 10.842 11.2738 10.9836C10.8461 11.122 10.4118 11.1922 9.98318 11.1922C9.55457 11.1922 9.12045 11.122 8.69229 10.9836C8.25436 10.8421 7.89944 10.6857 7.63776 10.5188C7.33426 10.3249 7.0596 10.1479 6.82141 9.99267C6.44055 9.74441 6.24295 9.66064 6.03879 9.66064C5.51877 9.66064 5.03293 9.74869 4.59454 9.92233C4.15479 10.0964 3.77408 10.3355 3.46295 10.6332C3.16586 10.9177 2.90082 11.263 2.6756 11.6595C2.45847 12.0418 2.28268 12.4405 2.15329 12.8447C2.02832 13.2355 1.9238 13.6629 1.84262 14.1151C1.76221 14.5634 1.70758 14.9887 1.68057 15.3793C1.65402 15.762 1.64059 16.1592 1.64059 16.5603C1.64059 17.6043 1.97247 18.4495 2.62692 19.0728C3.27328 19.6879 4.12854 20 5.16858 20H14.7987C15.8387 20 16.6937 19.6881 17.3402 19.0728C17.9948 18.45 18.3267 17.6046 18.3267 16.5602C18.3265 16.1572 18.313 15.7597 18.2863 15.3789Z" fill="white"/>
</g>
<defs>
<clipPath id="clip0_1_1980">
<rect width="20" height="20" fill="white"/>
</clipPath>
</defs>
</svg>
