<svg width="30" height="31" viewBox="0 0 30 31" fill="none" xmlns="http://www.w3.org/2000/svg">
<path d="M25.6114 4.80303C19.7586 -1.0486 10.2404 -1.0486 4.38767 4.80303C-1.46256 10.6547 -1.46256 20.1755 4.38767 26.0272C7.31404 28.9524 11.1571 30.4143 15.0002 30.4143C18.8433 30.4143 22.685 28.9523 25.6114 26.0272C31.4629 20.1756 31.4629 10.6547 25.6114 4.80303ZM21.1893 19.8366C21.6782 20.3256 21.6782 21.116 21.1893 21.605C20.9454 21.8489 20.6253 21.9714 20.3051 21.9714C19.985 21.9714 19.6648 21.8489 19.4209 21.605L15.0001 17.1828L10.5805 21.6037C10.3354 21.8476 10.0152 21.9702 9.69635 21.9702C9.37622 21.9702 9.05603 21.8476 8.81216 21.6037C8.3232 21.1147 8.3232 20.3231 8.81216 19.8354L13.2317 15.4145L8.81093 10.9936C8.32197 10.5046 8.32197 9.71296 8.81093 9.22522C9.29866 8.73625 10.0903 8.73625 10.5792 9.22522L15 13.6461L19.4208 9.22522C19.9098 8.73625 20.7002 8.73625 21.1892 9.22522C21.6781 9.71296 21.6781 10.5046 21.1892 10.9936L16.7684 15.4145L21.1893 19.8366Z" fill="white"/>
</svg>
