<svg width="30" height="30" viewBox="0 0 30 30" fill="none" xmlns="http://www.w3.org/2000/svg">
<g clip-path="url(#clip0_1_2381)">
<path d="M25.1811 2.02155H4.78944C2.65741 2.02155 0.922768 3.75584 0.922768 5.88822V18.3675C0.922768 20.4951 2.64985 22.2266 4.77571 22.2342V27.8971L12.914 22.2342H25.1811C27.3131 22.2342 29.0478 20.4995 29.0478 18.3675V5.88822C29.0478 3.75584 27.3131 2.02155 25.1811 2.02155ZM27.3998 18.3675C27.3998 19.5907 26.4045 20.5862 25.1811 20.5862H12.397L6.42366 24.7428V20.5862H4.78944C3.56601 20.5862 2.57072 19.5907 2.57072 18.3675V5.88822C2.57072 4.66462 3.56601 3.66949 4.78944 3.66949H25.1811C26.4045 3.66949 27.3998 4.66462 27.3998 5.88822V18.3675Z" fill="#C4C4C4"/>
<path d="M8.45047 7.84442H21.5205V9.49237H8.45047V7.84442Z" fill="#C4C4C4"/>
<path d="M8.45047 11.36H21.5205V13.008H8.45047V11.36Z" fill="#C4C4C4"/>
<path d="M8.45047 14.8757H21.5205V16.5236H8.45047V14.8757Z" fill="#C4C4C4"/>
</g>
<defs>
<clipPath id="clip0_1_2381">
<rect width="30" height="30" fill="white"/>
</clipPath>
</defs>
</svg>
