<svg width="20" height="20" viewBox="0 0 20 20" fill="none" xmlns="http://www.w3.org/2000/svg">
<path d="M18.2422 2.38269H1.75781C0.789766 2.38269 0 3.1716 0 4.1405V15.8593C0 16.8249 0.78625 17.6171 1.75781 17.6171H18.2422C19.2078 17.6171 20 16.8308 20 15.8593V4.1405C20 3.17488 19.2138 2.38269 18.2422 2.38269ZM17.9995 3.55457L10.0373 11.5168L2.00621 3.55457H17.9995ZM1.17188 15.6166V4.37757L6.81559 9.97289L1.17188 15.6166ZM2.00051 16.4452L7.64777 10.7979L9.62656 12.7597C9.85563 12.9868 10.2253 12.9861 10.4534 12.7579L12.3828 10.8285L17.9995 16.4452H2.00051ZM18.8281 15.6166L13.2114 9.99988L18.8281 4.38316V15.6166Z" fill="#A0A0A0"/>
</svg>
