<svg width="32" height="29" viewBox="0 0 32 29" fill="none" xmlns="http://www.w3.org/2000/svg">
<path d="M16.0981 28.7781C15.6489 28.7781 15.2158 28.6154 14.8782 28.3197C13.6034 27.205 12.3744 26.1575 11.29 25.2335L11.2845 25.2287C8.10536 22.5195 5.36006 20.1799 3.44992 17.8751C1.31468 15.2986 0.320129 12.8556 0.320129 10.1869C0.320129 7.59398 1.20923 5.20185 2.82348 3.45085C4.45699 1.67914 6.6984 0.703369 9.13555 0.703369C10.9571 0.703369 12.6253 1.27925 14.0936 2.41489C14.8347 2.98812 15.5064 3.68968 16.0981 4.508C16.6901 3.68968 17.3616 2.98812 18.1029 2.41489C19.5712 1.27925 21.2394 0.703369 23.0609 0.703369C25.4979 0.703369 27.7395 1.67914 29.373 3.45085C30.9873 5.20185 31.8761 7.59398 31.8761 10.1869C31.8761 12.8556 30.8818 15.2986 28.7466 17.8749C26.8364 20.1799 24.0914 22.5193 20.9127 25.2282C19.8264 26.1537 18.5955 27.2029 17.3178 28.3202C16.9805 28.6154 16.5471 28.7781 16.0981 28.7781ZM9.13555 2.55188C7.22084 2.55188 5.46189 3.31603 4.18229 4.70373C2.88367 6.11238 2.16839 8.0596 2.16839 10.1869C2.16839 12.4314 3.0026 14.4388 4.87301 16.6957C6.68083 18.8771 9.3698 21.1686 12.4832 23.822L12.489 23.8268C13.5774 24.7544 14.8113 25.806 16.0955 26.9289C17.3874 25.8039 18.6231 24.7506 19.7138 23.8215C22.8269 21.1681 25.5157 18.8771 27.3235 16.6957C29.1937 14.4388 30.0279 12.4314 30.0279 10.1869C30.0279 8.0596 29.3126 6.11238 28.014 4.70373C26.7346 3.31603 24.9754 2.55188 23.0609 2.55188C21.6583 2.55188 20.3705 2.99775 19.2335 3.87698C18.2201 4.66088 17.5142 5.65182 17.1004 6.34519C16.8876 6.70175 16.5129 6.91457 16.0981 6.91457C15.6833 6.91457 15.3087 6.70175 15.0959 6.34519C14.6823 5.65182 13.9764 4.66088 12.9628 3.87698C11.8257 2.99775 10.5379 2.55188 9.13555 2.55188Z" fill="white"/>
</svg>
