<svg width="20" height="18" viewBox="0 0 20 18" fill="none" xmlns="http://www.w3.org/2000/svg">
<path d="M20 7.01393C19.9578 7.07204 19.9672 7.14188 19.9466 7.20505C19.8224 7.58768 19.569 7.87435 19.1505 8.00574C18.446 8.22702 17.7338 8.42846 17.0249 8.63759C16.224 8.87405 15.4237 9.11153 14.622 9.34536C14.0064 9.52493 13.3854 9.3243 13.0688 8.84875C12.6338 8.19564 12.9549 7.36053 13.7637 7.11536C15.2695 6.65883 16.7804 6.21526 18.2945 5.78141C19.0915 5.55305 19.8648 6.01949 19.9781 6.76917C19.9806 6.78557 19.9792 6.80318 20 6.81148C20 6.8791 20 6.94652 20 7.01393Z" fill="#FFFFFF"/>
<path d="M4.6029 17.3498C4.10977 17.3304 3.71405 17.1314 3.4734 16.7239C3.2265 16.3056 3.24996 15.8811 3.55183 15.4926C4.04162 14.8621 4.54861 14.2426 5.04844 13.6185C5.4741 13.0871 5.89976 12.5556 6.32564 12.0244C6.79419 11.4397 7.64305 11.3426 8.25707 11.8029C8.75981 12.1799 8.86014 12.8721 8.46777 13.3735C7.97352 14.0054 7.46586 14.6285 6.96356 15.2553C6.54014 15.7839 6.11694 16.3129 5.6924 16.8411C5.42763 17.1705 5.06811 17.3379 4.6029 17.3498Z" fill="#FFFFFF"/>
<path d="M5.44041e-06 6.93986C-0.00245243 6.11609 0.828307 5.54256 1.66845 5.77537C2.47039 5.99766 3.26517 6.241 4.06309 6.47544C4.76559 6.68194 5.46876 6.88641 6.17037 7.09595C7.06593 7.36338 7.39462 8.29343 6.83176 8.95828C6.49235 9.35912 5.92526 9.51035 5.35995 9.34475C4.21927 9.01051 3.07972 8.67302 1.93971 8.33736C1.6079 8.23958 1.27564 8.14342 0.944051 8.04543C0.43773 7.89582 0.126251 7.58628 0.0163168 7.11255C0.0125182 7.09615 0.0087197 7.07955 0.00760249 7.06275C0.00358052 7.01254 0.0013461 6.96193 5.44041e-06 6.93986Z" fill="#FFFFFF"/>
<path d="M12.5548 11.5137C13.0251 11.5191 13.3837 11.6841 13.6463 12.0103C14.5678 13.1562 15.4897 14.3016 16.4042 15.4517C16.9995 16.2004 16.5459 17.1942 15.5395 17.3335C15.0318 17.4038 14.6073 17.2292 14.3036 16.8529C13.3757 15.7032 12.4502 14.5518 11.5323 13.3954C10.9603 12.6749 11.3862 11.7107 12.3452 11.5333C12.4209 11.5193 12.4998 11.5187 12.5548 11.5137Z" fill="#FFFFFF"/>
<path d="M11.2968 3.33418C11.2968 4.0381 11.2975 4.74201 11.2968 5.44593C11.2964 6.05065 10.8665 6.52093 10.2093 6.63775C9.53344 6.758 8.81643 6.30533 8.7094 5.68948C8.69666 5.61659 8.68728 5.5425 8.68706 5.46881C8.68572 4.04073 8.68482 2.61266 8.68661 1.18478C8.68773 0.521358 9.28073 -0.00602154 10.0125 5.19343e-05C10.7072 0.00592295 11.2921 0.531481 11.2959 1.1617C11.3002 1.88586 11.2968 2.61002 11.2968 3.33418Z" fill="#FFFFFF"/>
</svg>
