<svg width="20" height="20" viewBox="0 0 20 20" fill="none" xmlns="http://www.w3.org/2000/svg">
<g clip-path="url(#clip0_1_2650)">
<path d="M9.4305 0.00170898C9.48366 0.00170898 9.53706 0.00170898 9.59022 0.00170898C9.69677 0.0376107 9.80333 0.0263339 9.90988 0.00170898C10.103 0.00170898 10.2961 0.00170898 10.4891 0.00170898C10.5043 0.0279448 10.5303 0.0185091 10.552 0.0196598C11.6744 0.0820275 12.7549 0.328967 13.7944 0.755645C18.2303 2.5765 20.7711 7.3275 19.767 12.0163C19.0984 15.138 17.307 17.4387 14.474 18.9138C13.3739 19.4867 12.1942 19.81 10.9607 19.9324C10.2562 20.0024 9.55133 19.9957 8.84802 19.9138C8.2225 19.8408 7.60826 19.7115 7.00737 19.5216C6.95789 19.506 6.92981 19.4954 6.94224 19.4282C7.13556 18.3693 7.45614 17.3507 7.927 16.383C9.15733 13.8542 11.0385 11.9733 13.5659 10.7382C13.6446 10.6997 13.6832 10.7142 13.7401 10.7729C14.26 11.3068 14.8952 11.5388 15.6321 11.4403C16.6794 11.3004 17.4485 10.4618 17.5259 9.40496C17.6117 8.22987 16.7082 7.17307 15.5342 7.07549C14.2604 6.96986 13.1806 7.93023 13.1424 9.20635C13.1401 9.28506 13.1139 9.31222 13.0412 9.33224C11.2866 9.81875 9.67261 10.5973 8.20179 11.6714C6.99425 12.5533 5.94229 13.593 5.04566 14.7898C4.42935 15.6123 3.90348 16.4891 3.46806 17.4202C3.44919 17.4607 3.4462 17.5332 3.36634 17.4619C2.76752 16.9275 2.23705 16.3333 1.77907 15.6739C1.75721 15.6426 1.7457 15.6127 1.74823 15.5727C1.78966 14.9108 1.87573 14.2545 2.02555 13.6087C2.7017 10.6951 4.21279 8.30996 6.56228 6.45642C6.6281 6.40441 6.65595 6.41384 6.70842 6.4746C7.2306 7.0778 7.8934 7.34223 8.68393 7.24672C9.92967 7.09598 10.7842 5.90432 10.5522 4.66156C10.3448 3.55068 9.32533 2.7811 8.19281 2.88052C7.0771 2.97856 6.19981 3.93041 6.20027 5.05257C6.20027 5.16741 6.1623 5.20907 6.06196 5.24819C4.30991 5.92963 2.79168 6.95927 1.50129 8.32538C0.953562 8.90533 0.47119 9.53637 0.0412903 10.2081C0.0118325 10.1741 0.0217285 10.1324 0.0214984 10.094C0.0205778 9.89217 0.0212682 9.69056 0.0214984 9.48873C0.0530274 8.71063 0.186968 7.94956 0.402378 7.20207C1.54387 3.24184 5.0719 0.359805 9.17022 0.0369203C9.25675 0.0300161 9.34811 0.0445148 9.4305 0.00170898Z" fill="#A0A0A0"/>
<path d="M0.00183105 9.49006C0.00827495 9.48983 0.0147188 9.48937 0.0211627 9.48914C0.0209326 9.69097 0.020012 9.89257 0.0211627 10.0944C0.0213929 10.1331 0.0114969 10.1745 0.0409547 10.2086C0.0377327 10.2316 0.0223134 10.2428 0.00183105 10.2493C0.00183105 9.99613 0.00183105 9.74321 0.00183105 9.49006Z" fill="#A0A0A0"/>
<path d="M9.91006 0.00170898C9.8035 0.0263339 9.69695 0.0376107 9.59039 0.00170898C9.69695 0.00170898 9.8035 0.00170898 9.91006 0.00170898Z" fill="#A0A0A0"/>
</g>
<defs>
<clipPath id="clip0_1_2650">
<rect width="20" height="20" fill="white"/>
</clipPath>
</defs>
</svg>
