<svg width="20" height="20" viewBox="0 0 20 20" fill="none" xmlns="http://www.w3.org/2000/svg">
<path d="M10.1766 12.8725C10.0015 13.0485 9.90344 13.2867 9.90378 13.5349C9.90411 13.7831 10.0029 14.021 10.1784 14.1965C10.3539 14.372 10.5918 14.4708 10.84 14.4711C11.0882 14.4715 11.3264 14.3734 11.5024 14.1983L15.0379 10.6628C15.2137 10.487 15.3125 10.2485 15.3125 9.99986C15.3125 9.75122 15.2137 9.51277 15.0379 9.33695L11.5024 5.80144C11.3266 5.62563 11.0881 5.52686 10.8395 5.52686C10.5908 5.52686 10.3524 5.62563 10.1766 5.80144C10.0007 5.97726 9.90198 6.21571 9.90198 6.46435C9.90198 6.71299 10.0007 6.95145 10.1766 7.12726L12.1117 9.06238H1.875C1.62636 9.06238 1.3879 9.16115 1.21209 9.33697C1.03627 9.51279 0.9375 9.75124 0.9375 9.99988C0.9375 10.2485 1.03627 10.487 1.21209 10.6628C1.3879 10.8386 1.62636 10.9374 1.875 10.9374H12.1117L10.1766 12.8725Z" fill="white"/>
<path d="M17.5 0.9375H8.75C8.3356 0.9375 7.93817 1.10212 7.64515 1.39515C7.35212 1.68817 7.1875 2.0856 7.1875 2.5V3.75C7.1875 3.99864 7.28627 4.2371 7.46209 4.41291C7.6379 4.58873 7.87636 4.6875 8.125 4.6875C8.37364 4.6875 8.6121 4.58873 8.78791 4.41291C8.96373 4.2371 9.0625 3.99864 9.0625 3.75V2.8125H17.1875V17.1875H9.0625V16.25C9.0625 16.0014 8.96373 15.7629 8.78791 15.5871C8.6121 15.4113 8.37364 15.3125 8.125 15.3125C7.87636 15.3125 7.6379 15.4113 7.46209 15.5871C7.28627 15.7629 7.1875 16.0014 7.1875 16.25V17.5C7.1875 17.9144 7.35212 18.3118 7.64515 18.6049C7.93817 18.8979 8.3356 19.0625 8.75 19.0625H17.5C17.9144 19.0625 18.3118 18.8979 18.6049 18.6049C18.8979 18.3118 19.0625 17.9144 19.0625 17.5V2.5C19.0625 2.0856 18.8979 1.68817 18.6049 1.39515C18.3118 1.10212 17.9144 0.9375 17.5 0.9375Z" fill="white"/>
</svg>
