<svg width="27" height="27" viewBox="0 0 27 27" fill="none" xmlns="http://www.w3.org/2000/svg">
<g clip-path="url(#clip0_1_2179)">
<path d="M26.7236 13.7965C26.7236 21.0886 20.8122 27 13.52 27C12.971 27 12.4299 26.9665 11.8984 26.9014C8.80355 26.5226 6.06898 25.0734 4.01811 22.9346C2.09557 20.9298 0.77021 18.3189 0.415077 15.4181C0.349983 14.8866 0.316406 14.3454 0.316406 13.7965C0.316406 6.5043 6.22781 0.592896 13.52 0.592896C20.8122 0.592896 26.7236 6.5043 26.7236 13.7965Z" fill="#F7C37D"/>
<path d="M7.53793 4.85034H24.2446C24.691 4.85034 25.053 5.21227 25.053 5.65866V16.9762C25.053 17.4225 24.691 17.7845 24.2446 17.7845H7.53793C7.09155 17.7845 6.72961 17.4225 6.72961 16.9762V5.65866C6.72961 5.21227 7.09155 4.85034 7.53793 4.85034Z" fill="#FADEB9"/>
<path d="M8.6159 4.85034H24.2446C24.691 4.85034 25.053 5.21227 25.053 5.65866V16.9762C25.053 17.4225 24.691 17.7845 24.2446 17.7845H8.6159C8.1693 17.7845 7.80737 17.4225 7.80737 16.9762V5.65866C7.80737 5.21227 8.1693 4.85034 8.6159 4.85034Z" fill="#FFF5F5"/>
<path d="M19.6638 14.0119H22.8973C23.195 14.0119 23.4362 14.2533 23.4362 14.551V15.6287C23.4362 15.9264 23.195 16.1676 22.8973 16.1676H19.6638C19.3661 16.1676 19.1249 15.9264 19.1249 15.6287V14.551C19.1249 14.2533 19.3661 14.0119 19.6638 14.0119ZM13.7357 14.551V15.6287C13.7357 15.9264 13.9769 16.1676 14.2746 16.1676H17.5081C17.8057 16.1676 18.047 15.9264 18.047 15.6287V14.551C18.047 14.2533 17.8057 14.0119 17.5081 14.0119H14.2746C13.9769 14.0119 13.7357 14.2533 13.7357 14.551ZM19.1249 11.3173V12.3952C19.1249 12.6929 19.3661 12.9341 19.6638 12.9341H22.8973C23.195 12.9341 23.4362 12.6929 23.4362 12.3952V11.3173C23.4362 11.0196 23.195 10.7784 22.8973 10.7784H19.6638C19.3661 10.7784 19.1249 11.0196 19.1249 11.3173ZM13.7357 11.3173V12.3952C13.7357 12.6929 13.9769 12.9341 14.2746 12.9341H17.5081C17.8057 12.9341 18.047 12.6929 18.047 12.3952V11.3173C18.047 11.0196 17.8057 10.7784 17.5081 10.7784H14.2746C13.9769 10.7784 13.7357 11.0196 13.7357 11.3173ZM19.1249 8.0838V9.16177C19.1249 9.45922 19.3661 9.70064 19.6638 9.70064H22.8973C23.195 9.70064 23.4362 9.45922 23.4362 9.16177V8.0838C23.4362 7.78614 23.195 7.54492 22.8973 7.54492H19.6638C19.3661 7.54492 19.1249 7.78614 19.1249 8.0838ZM13.7357 8.0838V9.16177C13.7357 9.45922 13.9769 9.70064 14.2746 9.70064H17.5081C17.8057 9.70064 18.047 9.45922 18.047 9.16177V8.0838C18.047 7.78614 17.8057 7.54492 17.5081 7.54492H14.2746C13.9769 7.54492 13.7357 7.78614 13.7357 8.0838ZM8.34631 8.0838V9.16177C8.34631 9.45922 8.58774 9.70064 8.8854 9.70064H12.1189C12.4165 9.70064 12.6578 9.45922 12.6578 9.16177V8.0838C12.6578 7.78614 12.4165 7.54492 12.1189 7.54492H8.8854C8.58774 7.54492 8.34631 7.78614 8.34631 8.0838Z" fill="#FDCBBB"/>
<path d="M7.53793 2.69458H24.2446C24.691 2.69458 25.053 3.05651 25.053 3.5029V5.92806H6.72961V3.5029C6.72961 3.05651 7.09155 2.69458 7.53793 2.69458Z" fill="#FD4343"/>
<path d="M8.6159 2.69458H24.2446C24.691 2.69458 25.053 3.05651 25.053 3.5029V5.92806H7.80737V3.5029C7.80737 3.05651 8.1693 2.69458 8.6159 2.69458Z" fill="#FD5757"/>
<path d="M17.2387 18.8353C17.2387 22.4595 15.0372 25.5692 11.8987 26.9008C10.7052 26.7547 9.56086 26.4492 8.48763 26.0065C7.12395 25.4438 2.11831 20.7543 1.34151 18.9043C0.881729 17.8094 0.565323 16.6394 0.415771 15.4179C1.74731 12.2793 4.85699 10.0779 8.48125 10.0779C13.3178 10.0779 17.2387 13.9988 17.2387 18.8353Z" fill="#458FA4"/>
<path d="M8.48125 10.0779C8.84606 10.0779 9.20573 10.1005 9.55901 10.144C5.23087 10.6753 1.87936 14.3638 1.87936 18.8353V18.8497C1.87977 19.1426 1.47932 19.2281 1.36478 18.9587C0.892441 17.8482 0.567795 16.6598 0.415771 15.4179C1.74731 12.2793 4.85699 10.0779 8.48125 10.0779Z" fill="#328091"/>
<path d="M15.6217 18.8353C15.6217 22.779 12.4246 25.976 8.4811 25.976C8.45782 25.976 8.43496 25.9754 8.41168 25.9752C5.22764 24.6381 2.67826 22.0887 1.34116 18.9047C1.34095 18.8814 1.34033 18.8585 1.34033 18.8353C1.34033 14.8917 4.53735 11.6947 8.4811 11.6947C12.4246 11.6947 15.6217 14.8917 15.6217 18.8353Z" fill="#FFF5F5"/>
<path d="M12.6577 4.31142C12.6577 4.60909 12.4165 4.8503 12.1188 4.8503H11.041C10.7434 4.8503 10.502 4.60909 10.502 4.31142C10.502 4.01376 10.7434 3.77234 11.041 3.77234H12.1188C12.4165 3.77234 12.6577 4.01376 12.6577 4.31142ZM22.3583 3.77234H21.2804C20.9829 3.77234 20.7415 4.01376 20.7415 4.31142C20.7415 4.60909 20.9829 4.8503 21.2804 4.8503H22.3583C22.656 4.8503 22.8972 4.60909 22.8972 4.31142C22.8972 4.01376 22.656 3.77234 22.3583 3.77234Z" fill="#F52C2C"/>
<path d="M22.3583 1.61684V4.85033H21.2803V1.61684C21.2803 1.3196 21.0387 1.07776 20.7414 1.07776C20.4444 1.07776 20.2025 1.3196 20.2025 1.61684V2.6946H19.1248V1.61684C19.1248 0.725304 19.8501 0 20.7414 0C21.633 0 22.3583 0.725304 22.3583 1.61684ZM10.5019 0C9.61056 0 8.88525 0.725304 8.88525 1.61684V2.6946H9.96301V1.61684C9.96301 1.3196 10.2048 1.07776 10.5019 1.07776C10.7991 1.07776 11.041 1.3196 11.041 1.61684V4.85033H12.1187V1.61684C12.1187 0.725304 11.3934 0 10.5019 0Z" fill="#C5D3DD"/>
<path d="M9.01998 11.0479V20.7485C9.01998 20.8973 8.89927 21.018 8.75054 21.018H8.21146C8.06273 21.018 7.94202 20.8973 7.94202 20.7485V11.0479C7.94202 10.8992 8.06273 10.7784 8.21146 10.7784H8.75054C8.89927 10.7784 9.01998 10.8992 9.01998 11.0479Z" fill="#B6C4CF"/>
<path d="M14.0051 19.3744H6.99905C6.85033 19.3744 6.72961 19.2536 6.72961 19.1049V18.5658C6.72961 18.4171 6.85033 18.2964 6.99905 18.2964H14.0051C14.1538 18.2964 14.2745 18.4171 14.2745 18.5658V19.1049C14.2745 19.2536 14.1538 19.3744 14.0051 19.3744Z" fill="#235967"/>
<path d="M5.81356 21.884C5.91882 21.9892 5.91882 22.1598 5.81356 22.2651L4.6703 23.4083C4.63425 23.4444 4.59016 23.4672 4.54402 23.4786C4.29992 23.2522 4.06447 23.0165 3.83808 22.7724C3.84941 22.7263 3.87207 22.6822 3.90833 22.6462L5.05138 21.5029C5.15665 21.3976 5.32721 21.3976 5.43247 21.5029L5.81356 21.884ZM4.43917 19.1049V18.5658C4.43917 18.4171 4.31846 18.2964 4.16973 18.2964H2.55289C2.40416 18.2964 2.28345 18.4171 2.28345 18.5658V19.1049C2.28345 19.2536 2.40416 19.3744 2.55289 19.3744H4.16973C4.31846 19.3744 4.43917 19.2536 4.43917 19.1049ZM11.5297 16.1679C11.6349 16.2731 11.8055 16.2731 11.9108 16.1679L13.054 15.0246C13.1593 14.9193 13.1593 14.7488 13.054 14.6435L12.6729 14.2624C12.5677 14.1572 12.3971 14.1572 12.2919 14.2624L11.1486 15.4057C11.0433 15.5109 11.0433 15.6815 11.1486 15.7868L11.5297 16.1679ZM8.75062 22.8773H8.21153C8.06281 22.8773 7.94209 22.998 7.94209 23.1467V24.7636C7.94209 24.9123 8.06281 25.033 8.21153 25.033H8.75062C8.89935 25.033 9.02006 24.9123 9.02006 24.7636V23.1467C9.02006 22.998 8.89935 22.8773 8.75062 22.8773ZM11.9108 21.5029C11.8055 21.3976 11.6349 21.3976 11.5297 21.5029L11.1486 21.884C11.0433 21.9892 11.0433 22.1598 11.1486 22.2651L12.2919 23.4083C12.3971 23.5136 12.5677 23.5136 12.6729 23.4083L13.054 23.0272C13.1593 22.922 13.1593 22.7514 13.054 22.6462L11.9108 21.5029ZM4.6703 14.2624C4.56503 14.1572 4.39447 14.1572 4.28921 14.2624L3.90812 14.6435C3.80286 14.7488 3.80286 14.9193 3.90812 15.0246L5.05138 16.1679C5.15665 16.2731 5.32721 16.2731 5.43247 16.1679L5.81356 15.7868C5.91882 15.6815 5.91882 15.5109 5.81356 15.4057L4.6703 14.2624Z" fill="#D9E7EC"/>
</g>
<defs>
<clipPath id="clip0_1_2179">
<rect width="27" height="27" fill="white"/>
</clipPath>
</defs>
</svg>
