<svg width="27" height="27" viewBox="0 0 27 27" fill="none" xmlns="http://www.w3.org/2000/svg">
<path d="M13.5 27C20.9558 27 27 20.9558 27 13.5C27 6.04416 20.9558 0 13.5 0C6.04416 0 0 6.04416 0 13.5C0 20.9558 6.04416 27 13.5 27Z" fill="#F94616"/>
<path d="M26.9999 13.5C26.9999 13.3221 26.9953 13.1453 26.9885 12.9691L19.4107 5.39124L5.50293 21.1124L11.1934 26.8029C11.943 26.932 12.7135 27 13.4999 27C20.9557 27 26.9999 20.9558 26.9999 13.5Z" fill="#DB2C09"/>
<path d="M13.5 3.16406C8.54887 3.16406 4.53516 7.17778 4.53516 12.1289C4.53516 14.646 5.57297 16.9204 7.24349 18.5486L5.48438 21.0938H13.5C18.4511 21.0938 22.4648 17.08 22.4648 12.1289C22.4648 7.17778 18.4511 3.16406 13.5 3.16406Z" fill="#E2F1FC"/>
<path d="M13.4998 3.16406C13.499 3.16406 13.4982 3.16412 13.4973 3.16412V21.0938H13.4998C18.451 21.0938 22.4647 17.08 22.4647 12.1289C22.4647 7.17778 18.451 3.16406 13.4998 3.16406Z" fill="#BADDFA"/>
<path d="M13.5 9.17212C14.614 9.17212 15.5171 8.26904 15.5171 7.15503C15.5171 6.04102 14.614 5.13794 13.5 5.13794C12.386 5.13794 11.4829 6.04102 11.4829 7.15503C11.4829 8.26904 12.386 9.17212 13.5 9.17212Z" fill="#1E499E"/>
<path d="M13.4998 5.13794C13.499 5.13794 13.4982 5.13799 13.4973 5.13799V9.17228C13.4982 9.17228 13.499 9.17233 13.4998 9.17233C14.6139 9.17233 15.517 8.2692 15.517 7.15513C15.517 6.04107 14.6139 5.13794 13.4998 5.13794Z" fill="#0E387C"/>
<path d="M15.1007 9.97314H11.8988V18.4043H15.1007V9.97314Z" fill="#1E499E"/>
<path d="M15.1007 9.97314H13.4972V18.4043H15.1007V9.97314Z" fill="#0E387C"/>
</svg>
