<svg width="27" height="27" viewBox="0 0 27 27" fill="none" xmlns="http://www.w3.org/2000/svg">
<g clip-path="url(#clip0_1_2035)">
<path d="M13.5 1.16016C6.36451 1.16016 0.580078 6.94459 0.580078 14.0801C0.580078 15.9091 0.960768 17.649 1.64637 19.2257H1.6991V13.6055C1.6991 13.4891 1.79371 13.3945 1.91004 13.3945H9.92566C10.042 13.3945 10.1366 13.4891 10.1366 13.6055V21.8206H23.6773L23.884 21.7679C25.4772 19.6196 26.4199 16.9601 26.4199 14.0801C26.4199 6.94459 20.6355 1.16016 13.5 1.16016Z" fill="#D8ECFE"/>
<path d="M16.2422 17.7651V19.3703H18.6134C18.8039 18.6413 19.3314 18.0475 20.0185 17.7651H16.2422Z" fill="#FE646F"/>
<path d="M25.765 17.7651H21.826C22.5133 18.0475 23.0407 18.6413 23.2312 19.3703H25.3651C25.6564 19.3703 25.8924 19.1342 25.8924 18.8429V17.8179L25.765 17.7651Z" fill="#FE646F"/>
<path d="M24.8907 15.2667H25.8526L25.8926 15.214V14.407C25.8926 14.2778 25.8732 14.15 25.8363 14.0274L25.7623 13.9747H18.8825C18.7662 13.9747 18.6716 13.8801 18.6716 13.7638V10.7579C18.6716 10.6416 18.7662 10.547 18.8825 10.547H23.6451L23.6742 10.4942L23.2527 9.82288C23.1562 9.66921 22.9876 9.57593 22.8061 9.57593H17.2194V17.818H19.8991C20.2094 17.6701 20.5563 17.587 20.9224 17.587C21.2885 17.587 21.6354 17.67 21.9458 17.818H25.8926V17.0597L25.8643 17.0069H24.8907C24.7744 17.0069 24.6797 16.9123 24.6797 16.796V15.4776C24.6797 15.3613 24.7744 15.2667 24.8907 15.2667Z" fill="#FD4755"/>
<path d="M19.9371 10.5697L19.8844 10.4941H18.8824C18.7368 10.4941 18.6188 10.6122 18.6188 10.7578V13.7637C18.6188 13.9093 18.7368 14.0273 18.8824 14.0273H19.8844L19.9371 13.9342V10.5697Z" fill="#C41926"/>
<path d="M14.3882 4.9043H2.95715C2.6659 4.9043 2.42981 5.14039 2.42981 5.43164V13.3945H9.9259C10.0422 13.3945 10.1368 13.4891 10.1368 13.6055V15.8319H16.0315C16.1478 15.8319 16.2424 15.9265 16.2424 16.0429V17.8179H17.2723V7.88822C15.8363 7.51518 14.7138 6.35855 14.3882 4.9043Z" fill="#FED402"/>
<path d="M4.64086 13.3418V5.43164C4.64086 5.14039 4.87695 4.9043 5.1682 4.9043H2.95715C2.6659 4.9043 2.42981 5.14039 2.42981 5.43164V13.3418H4.64086Z" fill="#FAC600"/>
<path d="M13.9752 11.4898H5.72754C5.43629 11.4898 5.2002 11.2537 5.2002 10.9624V8.49023C5.2002 8.19898 5.43629 7.96289 5.72754 7.96289H13.9752C14.2664 7.96289 14.5025 8.19898 14.5025 8.49023V10.9624C14.5025 11.2537 14.2664 11.4898 13.9752 11.4898Z" fill="white"/>
<path d="M6.856 10.9624V8.49023C6.856 8.19898 7.09209 7.96289 7.38335 7.96289H5.72754C5.43629 7.96289 5.2002 8.19898 5.2002 8.49023V10.9624C5.2002 11.2537 5.43629 11.4898 5.72754 11.4898H7.38335C7.09209 11.4898 6.856 11.2537 6.856 10.9624Z" fill="#F3F0FF"/>
<path d="M19.3311 21.8206H22.5136C23.0324 21.3734 23.3613 20.7119 23.3613 19.9731C23.3613 18.6262 22.2694 17.5342 20.9224 17.5342C19.5754 17.5342 18.4834 18.6262 18.4834 19.9731C18.4834 20.7119 18.8123 21.3734 19.3311 21.8206Z" fill="#9182B0"/>
<path d="M19.2713 21.768H20.1417C19.6572 21.3224 19.3535 20.6834 19.3535 19.9732C19.3535 18.7748 20.2181 17.779 21.3574 17.5737C21.2161 17.5482 21.0709 17.5342 20.9224 17.5342C19.5754 17.5342 18.4834 18.6261 18.4834 19.9731C18.4834 20.6833 18.787 21.3222 19.2713 21.768Z" fill="#7A6D98"/>
<path d="M20.9224 21.2783C21.6432 21.2783 22.2275 20.694 22.2275 19.9731C22.2275 19.2523 21.6432 18.668 20.9224 18.668C20.2015 18.668 19.6172 19.2523 19.6172 19.9731C19.6172 20.694 20.2015 21.2783 20.9224 21.2783Z" fill="#CFCAE4"/>
<path d="M20.9224 20.6719C21.3083 20.6719 21.6211 20.359 21.6211 19.9731C21.6211 19.5872 21.3083 19.2744 20.9224 19.2744C20.5365 19.2744 20.2236 19.5872 20.2236 19.9731C20.2236 20.359 20.5365 20.6719 20.9224 20.6719Z" fill="white"/>
<path d="M20.7773 19.9731C20.7773 19.6862 20.9513 19.4393 21.1992 19.3319C21.1143 19.2951 21.0207 19.2744 20.9224 19.2744C20.5371 19.2744 20.2236 19.5879 20.2236 19.9731C20.2236 20.3584 20.537 20.6719 20.9224 20.6719C21.0207 20.6719 21.1143 20.6512 21.1992 20.6144C20.9513 20.5069 20.7773 20.2601 20.7773 19.9731Z" fill="#F3F0FF"/>
<path d="M18.2725 8.06836C20.5005 8.06836 22.3066 6.2622 22.3066 4.03418C22.3066 1.80616 20.5005 0 18.2725 0C16.0444 0 14.2383 1.80616 14.2383 4.03418C14.2383 6.2622 16.0444 8.06836 18.2725 8.06836Z" fill="#9182B0"/>
<path d="M16.3823 6.0876C15.8284 5.5775 15.4811 4.8465 15.4811 4.03418C15.4811 3.22186 15.8284 2.49086 16.3823 1.98076C16.9562 1.01266 17.923 0.304805 19.0635 0.0780469C18.8077 0.0271582 18.5433 0 18.2725 0C16.0444 0 14.2383 1.80615 14.2383 4.03418C14.2383 6.26221 16.0444 8.06836 18.2725 8.06836C18.5433 8.06836 18.8077 8.0412 19.0635 7.99031C17.923 7.76356 16.9562 7.0557 16.3823 6.0876Z" fill="#7A6D98"/>
<path d="M18.2727 6.82558C19.8143 6.82558 21.064 5.57586 21.064 4.03425C21.064 2.49264 19.8143 1.24292 18.2727 1.24292C16.731 1.24292 15.4813 2.49264 15.4813 4.03425C15.4813 5.57586 16.731 6.82558 18.2727 6.82558Z" fill="white"/>
<path d="M16.566 4.03425C16.566 2.67824 17.533 1.54852 18.815 1.29602C18.6395 1.26148 18.4583 1.24292 18.2727 1.24292C16.7311 1.24292 15.4813 2.49262 15.4813 4.03425C15.4813 5.57589 16.731 6.82558 18.2727 6.82558C18.4583 6.82558 18.6395 6.80702 18.815 6.77248C17.533 6.51999 16.566 5.39026 16.566 4.03425Z" fill="#F3F0FF"/>
<path d="M19.7227 4.44576H18.2561C18.1481 4.44576 18.0448 4.40157 17.9702 4.32347L16.5971 2.88625C16.4462 2.72831 16.4519 2.47793 16.6098 2.32706C16.7676 2.17618 17.018 2.18188 17.169 2.33982L18.4253 3.65475H19.7227C19.9412 3.65475 20.1182 3.83183 20.1182 4.05025C20.1182 4.26868 19.9411 4.44576 19.7227 4.44576Z" fill="#A79BC6"/>
<path d="M18.2727 4.71406C18.6482 4.71406 18.9526 4.40966 18.9526 4.03416C18.9526 3.65865 18.6482 3.35425 18.2727 3.35425C17.8972 3.35425 17.5928 3.65865 17.5928 4.03416C17.5928 4.40966 17.8972 4.71406 18.2727 4.71406Z" fill="#9182B0"/>
<path d="M16.0309 15.7793H10.1362V21.8208H16.2946V16.043C16.2946 15.8973 16.1765 15.7793 16.0309 15.7793Z" fill="#D88A55"/>
<path d="M10.189 15.7793H11.3491V21.768H10.189V15.7793Z" fill="#C57A44"/>
<path d="M13.8216 17.8522H12.6615C12.5159 17.8522 12.3978 17.7341 12.3978 17.5885V15.7793H14.0853V17.5885C14.0853 17.7341 13.9672 17.8522 13.8216 17.8522Z" fill="#FE646F"/>
<path d="M13.0776 17.5885V15.7793H12.3978V17.5885C12.3978 17.7341 12.5159 17.8522 12.6615 17.8522H13.3412C13.1956 17.8522 13.0776 17.7341 13.0776 17.5885Z" fill="#FD4755"/>
<path d="M20.3894 15.3984H18.7772C18.6898 15.3984 18.619 15.3276 18.619 15.2402V14.7129C18.619 14.6255 18.6898 14.5547 18.7772 14.5547H20.3894C20.4767 14.5547 20.5476 14.6255 20.5476 14.7129V15.2402C20.5476 15.3276 20.4767 15.3984 20.3894 15.3984Z" fill="#C41926"/>
<path d="M25.691 13.7059L23.6745 10.4941H19.8846V14.0273H25.8365C25.8027 13.9148 25.7541 13.8064 25.691 13.7059Z" fill="white"/>
<path d="M19.8846 10.4941H21.0484V14.0273H19.8846V10.4941Z" fill="#F3F0FF"/>
<path d="M10.189 13.6055C10.189 13.4599 10.0709 13.3418 9.92529 13.3418H1.90967C1.76407 13.3418 1.646 13.4599 1.646 13.6055V19.2257C2.03992 20.1317 2.5342 20.984 3.11554 21.7679L3.32232 21.8206H10.189V13.6055Z" fill="#F6A96C"/>
<path d="M3.26916 13.6055C3.26916 13.4599 3.38723 13.3418 3.53283 13.3418H1.90967C1.76407 13.3418 1.646 13.4599 1.646 13.6055V19.2257C2.03992 20.1317 2.5342 20.984 3.11555 21.7679L3.26916 21.8071V13.6055Z" fill="#EA9B58"/>
<path d="M6.7085 16.2422H5.12646C4.98087 16.2422 4.86279 16.1241 4.86279 15.9785V13.3418H6.97217V15.9785C6.97217 16.1241 6.8541 16.2422 6.7085 16.2422Z" fill="#FE646F"/>
<path d="M5.64221 15.9785V13.3418H4.86279V15.9785C4.86279 16.1241 4.98087 16.2422 5.12646 16.2422H5.90588C5.76028 16.2422 5.64221 16.1241 5.64221 15.9785Z" fill="#FD4755"/>
<path d="M5.2548 23.7305L4.97046 23.7832C7.24605 25.7852 10.231 27 13.5 27C16.7691 27 19.7541 25.7852 22.0296 23.7832L21.7453 23.7305H5.2548Z" fill="#B5ADD5"/>
<path d="M3.11597 21.7678C3.66161 22.5036 4.28366 23.1791 4.97027 23.7831H22.0298C22.7164 23.1791 23.3385 22.5036 23.8841 21.7678H3.11597Z" fill="#CFCAE4"/>
<path d="M25.8926 15.2139H24.8906C24.745 15.2139 24.627 15.3319 24.627 15.4775V16.7959C24.627 16.9415 24.745 17.0596 24.8906 17.0596H25.8926V15.2139Z" fill="white"/>
</g>
<defs>
<clipPath id="clip0_1_2035">
<rect width="27" height="27" fill="white"/>
</clipPath>
</defs>
</svg>
