<svg width="27" height="27" viewBox="0 0 27 27" fill="none" xmlns="http://www.w3.org/2000/svg">
<g clip-path="url(#clip0_1_2257)">
<path d="M25.7589 13.501L26.9435 10.4114C27.0734 10.0705 26.9721 9.6841 26.687 9.45292L24.1188 7.37069L23.5991 4.10222C23.5417 3.74112 23.2582 3.45933 22.8971 3.40195L19.6286 2.88224L17.5481 0.312349C17.3186 0.0271802 16.9238 -0.074063 16.5914 0.0558658L13.5001 1.2421L10.4105 0.0575532C10.0679 -0.074063 9.68489 0.030555 9.45372 0.314036L7.37148 2.88393L4.10302 3.40364C3.74361 3.46101 3.46013 3.74449 3.40275 4.10391L2.88304 7.37238L0.313153 9.45461C0.0296725 9.6841 -0.0732579 10.0705 0.0566707 10.4114L1.24121 13.501L0.0566707 16.5906C-0.0749453 16.9314 0.0296725 17.3178 0.313153 17.5473L2.88304 19.6279L3.40275 22.8963C3.46013 23.2574 3.74192 23.5409 4.10302 23.5983L7.37148 24.118L9.45372 26.6862C9.68489 26.9731 10.0713 27.0743 10.4122 26.9427L13.5001 25.7598L16.5897 26.9444C16.6875 26.9815 16.7888 27.0001 16.8917 27.0001C17.1398 27.0001 17.3844 26.8904 17.5481 26.6862L19.6286 24.118L22.8971 23.5983C23.2582 23.5409 23.5417 23.2574 23.5991 22.8963L24.1188 19.6279L26.687 17.5473C26.9721 17.3161 27.0734 16.9314 26.9435 16.5906L25.7589 13.501Z" fill="#F44336"/>
<path d="M10.9692 11.8134C9.57372 11.8134 8.43811 10.6778 8.43811 9.2823C8.43811 7.88683 9.57372 6.75122 10.9692 6.75122C12.3647 6.75122 13.5003 7.88683 13.5003 9.2823C13.5003 10.6778 12.3647 11.8134 10.9692 11.8134ZM10.9692 8.43861C10.5035 8.43861 10.1255 8.81658 10.1255 9.2823C10.1255 9.74802 10.5035 10.126 10.9692 10.126C11.4349 10.126 11.8129 9.74802 11.8129 9.2823C11.8129 8.81658 11.4349 8.43861 10.9692 8.43861Z" fill="#FAFAFA"/>
<path d="M16.0312 20.2504C14.6357 20.2504 13.5001 19.1148 13.5001 17.7193C13.5001 16.3238 14.6357 15.1882 16.0312 15.1882C17.4267 15.1882 18.5623 16.3238 18.5623 17.7193C18.5623 19.1148 17.4267 20.2504 16.0312 20.2504ZM16.0312 16.8756C15.5672 16.8756 15.1875 17.2553 15.1875 17.7193C15.1875 18.1833 15.5672 18.563 16.0312 18.563C16.4952 18.563 16.8749 18.1833 16.8749 17.7193C16.8749 17.2553 16.4952 16.8756 16.0312 16.8756Z" fill="#FAFAFA"/>
<path d="M9.28166 20.2505C9.11123 20.2505 8.94081 20.1999 8.79232 20.0936C8.41266 19.8219 8.32491 19.2954 8.59658 18.9158L17.0335 7.10409C17.3052 6.72443 17.8316 6.63668 18.2113 6.90835C18.5909 7.17833 18.677 7.70648 18.407 8.08446L9.97011 19.8962C9.80306 20.1273 9.54489 20.2505 9.28166 20.2505Z" fill="#FAFAFA"/>
</g>
<defs>
<clipPath id="clip0_1_2257">
<rect width="27" height="27" fill="white"/>
</clipPath>
</defs>
</svg>
