<svg width="27" height="27" viewBox="0 0 27 27" fill="none" xmlns="http://www.w3.org/2000/svg">
<g clip-path="url(#clip0_1_2096)">
<path d="M13.3965 27C20.532 27 26.3164 21.2156 26.3164 14.0801C26.3164 6.9446 20.532 1.16016 13.3965 1.16016C6.26101 1.16016 0.476562 6.9446 0.476562 14.0801C0.476562 21.2156 6.26101 27 13.3965 27Z" fill="#5DC1D8"/>
<path d="M26.7364 10.1147H19.2175C19.0725 10.1147 18.9539 10.2334 18.9539 10.3784V14.1012C19.3599 14.3633 19.6295 14.8194 19.6295 15.3375C19.6295 15.6939 19.5021 16.021 19.2905 16.2758H21.3207C21.4658 16.2758 21.5844 16.3944 21.5844 16.5395V18.0082C21.5844 18.1532 21.6671 18.1868 21.7682 18.0828L23.3409 16.4648C23.442 16.3609 23.6433 16.2758 23.7883 16.2758H26.7364C26.8815 16.2758 27.0001 16.1571 27.0001 16.0121V10.3784C27.0001 10.2334 26.8815 10.1147 26.7364 10.1147Z" fill="#F87EAB"/>
<path d="M20.0003 16.0121V10.3784C20.0003 10.2334 20.1189 10.1147 20.2639 10.1147H19.2175C19.0725 10.1147 18.9539 10.2334 18.9539 10.3784V14.1012C19.3599 14.3633 19.6295 14.8194 19.6295 15.3376C19.6295 15.6939 19.5021 16.021 19.2905 16.2758H20.2639C20.1189 16.2758 20.0003 16.1572 20.0003 16.0121Z" fill="#E26693"/>
<path d="M22.9771 14.6898C21.7576 14.6898 20.6008 14.1589 19.8031 13.2329C19.765 13.1886 19.765 13.1231 19.8031 13.0789C20.6008 12.153 21.7576 11.6219 22.9771 11.6219C24.1965 11.6219 25.3533 12.153 26.1509 13.0789C26.1891 13.1231 26.1891 13.1886 26.1509 13.2329C25.3533 14.1588 24.1965 14.6898 22.9771 14.6898Z" fill="white"/>
<path d="M20.5677 13.2329C20.5297 13.1886 20.5297 13.1231 20.5677 13.0789C21.2814 12.2505 22.2826 11.7386 23.3588 11.6398C23.2324 11.6282 23.1051 11.6219 22.9771 11.6219C21.7576 11.6219 20.6008 12.153 19.8031 13.0789C19.765 13.1231 19.765 13.1886 19.8031 13.2329C20.6008 14.1589 21.7576 14.6898 22.9771 14.6898C23.1052 14.6898 23.2324 14.6836 23.3587 14.6719C22.2825 14.5732 21.2814 14.0613 20.5677 13.2329Z" fill="#D9EAFC"/>
<path d="M24.1962 13.1558C24.1962 13.8292 23.6503 14.3751 22.9769 14.3751C22.3035 14.3751 21.7576 13.8292 21.7576 13.1558C21.7576 12.4824 22.3035 11.9366 22.9769 11.9366C23.6503 11.9366 24.1962 12.4824 24.1962 13.1558Z" fill="#AEC1ED"/>
<path d="M22.9769 12.3881C22.5528 12.3881 22.209 12.7318 22.209 13.1558C22.209 13.3024 22.2508 13.4388 22.322 13.5554C22.3657 13.4529 22.4672 13.3809 22.5856 13.3809C22.7438 13.3809 22.8721 13.5094 22.8721 13.6674C22.8721 13.7589 22.829 13.8403 22.7621 13.8927C22.8304 13.9126 22.9023 13.9238 22.9769 13.9238C23.4009 13.9238 23.7449 13.58 23.7449 13.1558C23.7448 12.7318 23.4009 12.3881 22.9769 12.3881Z" fill="#1A2B63"/>
<path d="M22.8723 13.6674C22.8723 13.8257 22.744 13.954 22.5858 13.954C22.4277 13.954 22.2994 13.8257 22.2994 13.6674C22.2994 13.5094 22.4277 13.381 22.5858 13.381C22.744 13.381 22.8723 13.5094 22.8723 13.6674Z" fill="white"/>
<path d="M8.76573 10.5175C8.76573 9.39801 9.33558 8.40919 10.2003 7.82552V6.90552C10.2003 6.7605 10.0817 6.64185 9.93664 6.64185H1.3103C1.16528 6.64185 1.04663 6.7605 1.04663 6.90552V12.5392C1.04663 12.6843 1.16528 12.8029 1.3103 12.8029H4.73672C4.88174 12.8029 5.0884 12.8825 5.19598 12.9798L7.01221 14.6221C7.11973 14.7194 7.20775 14.6804 7.20775 14.5353V13.0666C7.20775 12.9216 7.3264 12.803 7.47142 12.803H8.76573V10.5175Z" fill="#445EA0"/>
<path d="M5.53906 0.263672C5.53906 0.118652 5.65771 0 5.80273 0H14.561C14.706 0 14.8246 0.118652 14.8246 0.263672V5.47356C14.8246 5.61858 14.706 5.73724 14.561 5.73724H12.0526C11.9076 5.73724 11.7889 5.85589 11.7889 6.00091V6.92107C11.7889 7.06609 11.6893 7.1203 11.5675 7.04157L9.77126 5.88041C9.64944 5.80168 9.43118 5.73724 9.28616 5.73724H5.80279C5.65777 5.73724 5.53912 5.61858 5.53912 5.47356L5.53906 0.263672Z" fill="#FE3745"/>
<path d="M6.58542 5.47356V0.263672C6.58542 0.118652 6.70407 0 6.84909 0H5.80273C5.65771 0 5.53906 0.118652 5.53906 0.263672V5.47356C5.53906 5.61858 5.65771 5.73724 5.80273 5.73724H6.84909C6.70407 5.73724 6.58542 5.61858 6.58542 5.47356Z" fill="#B7092B"/>
<path d="M7.61045 1.46544C7.67769 1.32923 7.78769 1.32923 7.85487 1.46544L8.08981 1.94126C8.15699 2.07748 8.33497 2.20683 8.48526 2.22867L9.0105 2.30508C9.1609 2.32686 9.1948 2.43143 9.08607 2.53748L8.70601 2.90794C8.59722 3.01399 8.52924 3.22324 8.55492 3.37279L8.64468 3.89597C8.67041 4.04568 8.58134 4.11033 8.44692 4.03967L7.97711 3.79266C7.84269 3.722 7.62274 3.722 7.48827 3.79266L7.01856 4.03967C6.88409 4.11039 6.79502 4.04568 6.82075 3.89597L6.91051 3.37279C6.93608 3.22318 6.86816 3.01393 6.75942 2.90794L6.37936 2.53748C6.27057 2.43143 6.30464 2.32686 6.45493 2.30508L6.98012 2.22867C7.13051 2.20683 7.30849 2.07748 7.37562 1.94126L7.61045 1.46544Z" fill="#FFAF10"/>
<path d="M13.5006 2.12964H9.97156C9.75313 2.12964 9.57605 1.95261 9.57605 1.73413C9.57605 1.51565 9.75313 1.33862 9.97156 1.33862H13.5006C13.719 1.33862 13.8961 1.51565 13.8961 1.73413C13.8961 1.95261 13.719 2.12964 13.5006 2.12964Z" fill="#FFAF10"/>
<path d="M13.5006 3.18286H9.97156C9.75313 3.18286 9.57605 3.00583 9.57605 2.78735C9.57605 2.56888 9.75313 2.39185 9.97156 2.39185H13.5006C13.719 2.39185 13.8961 2.56888 13.8961 2.78735C13.8961 3.00583 13.719 3.18286 13.5006 3.18286Z" fill="#FFAF10"/>
<path d="M11.743 4.23584H9.97156C9.75313 4.23584 9.57605 4.05881 9.57605 3.84033C9.57605 3.62185 9.75313 3.44482 9.97156 3.44482H11.743C11.9614 3.44482 12.1385 3.62185 12.1385 3.84033C12.1385 4.05881 11.9614 4.23584 11.743 4.23584Z" fill="#FFAF10"/>
<path d="M19.6533 20.9512H16.6573L16.7369 21.239C16.77 21.3587 16.7183 21.5278 16.6238 21.6084L14.9899 23.0042C14.9504 23.0379 14.899 23.0564 14.8451 23.0564C14.7827 23.0564 14.7233 23.0315 14.6822 22.988L13.6154 21.863C13.5573 21.8017 13.4796 21.768 13.3966 21.768C13.3136 21.768 13.2358 21.8017 13.1778 21.863L12.1111 22.988C12.0698 23.0315 12.0104 23.0564 11.9481 23.0564C11.8942 23.0564 11.8428 23.0379 11.8033 23.0042L10.1694 21.6084C10.0751 21.5278 10.0233 21.3587 10.0563 21.239L10.1358 20.9512H7.13979C6.34361 20.9512 5.69592 21.5989 5.69592 22.395V24.4548C7.84643 26.0537 10.5109 27 13.3966 27C16.2822 27 18.9466 26.0537 21.0972 24.4548V22.395C21.0972 21.5989 20.4495 20.9512 19.6533 20.9512Z" fill="#293D7C"/>
<path d="M6.74228 22.395C6.74228 21.5989 7.38997 20.9512 8.18615 20.9512H7.1398C6.34361 20.9512 5.69592 21.5989 5.69592 22.395V24.4548C6.03247 24.7051 6.38168 24.9393 6.74228 25.1565V22.395Z" fill="#1A2B63"/>
<path d="M13.3965 24.0832C13.2672 24.0832 13.1399 24.0307 13.0486 23.9389C12.9568 23.8476 12.9043 23.7203 12.9043 23.591C12.9043 23.4617 12.9568 23.3344 13.0486 23.2431C13.1399 23.1513 13.2665 23.0988 13.3965 23.0988C13.5258 23.0988 13.6531 23.1513 13.7444 23.2431C13.8362 23.3344 13.8887 23.4617 13.8887 23.591C13.8887 23.7203 13.8362 23.8476 13.7444 23.9389C13.6524 24.0307 13.5258 24.0832 13.3965 24.0832Z" fill="white"/>
<path d="M13.4207 23.9389C13.3289 23.8476 13.2763 23.7203 13.2763 23.591C13.2763 23.4617 13.3289 23.3344 13.4207 23.2431C13.4669 23.1966 13.5223 23.1603 13.5823 23.1357C13.5236 23.1117 13.4604 23.0988 13.3965 23.0988C13.2665 23.0988 13.1399 23.1513 13.0486 23.2431C12.9568 23.3344 12.9043 23.4617 12.9043 23.591C12.9043 23.7203 12.9568 23.8476 13.0486 23.9389C13.1399 24.0307 13.2672 24.0832 13.3965 24.0832C13.4604 24.0832 13.5236 24.0703 13.5823 24.0462C13.5223 24.0216 13.4668 23.9853 13.4207 23.9389Z" fill="#D9EAFC"/>
<path d="M13.3965 26.0732C13.2665 26.0732 13.1399 26.0206 13.0486 25.9288C12.9568 25.8376 12.9043 25.7102 12.9043 25.581C12.9043 25.4516 12.9568 25.3244 13.0486 25.233C13.1399 25.1412 13.2665 25.0887 13.3965 25.0887C13.5258 25.0887 13.6531 25.1412 13.7444 25.233C13.8362 25.3243 13.8887 25.4516 13.8887 25.581C13.8887 25.7102 13.8362 25.8376 13.7444 25.9288C13.6531 26.0206 13.5258 26.0732 13.3965 26.0732Z" fill="white"/>
<path d="M13.4207 25.9287C13.3289 25.8375 13.2763 25.7101 13.2763 25.5808C13.2763 25.4515 13.3289 25.3242 13.4207 25.233C13.4669 25.1864 13.5223 25.1501 13.5823 25.1255C13.5236 25.1015 13.4604 25.0886 13.3965 25.0886C13.2665 25.0886 13.1399 25.1411 13.0486 25.233C12.9568 25.3242 12.9043 25.4515 12.9043 25.5808C12.9043 25.7101 12.9568 25.8375 13.0486 25.9287C13.1399 26.0205 13.2672 26.0731 13.3965 26.0731C13.4604 26.0731 13.5236 26.0601 13.5823 26.036C13.5223 26.0114 13.4668 25.9751 13.4207 25.9287Z" fill="#D9EAFC"/>
<path d="M16.3101 19.4966C15.5148 20.1451 14.5006 20.5349 13.3967 20.5349C12.2927 20.5349 11.2785 20.1451 10.4831 19.4966L10.0055 21.225C9.96703 21.3642 10.0255 21.5548 10.1352 21.6485L11.7691 23.0443C11.879 23.1381 12.05 23.1291 12.1493 23.0243L13.2161 21.8993C13.3154 21.7945 13.4779 21.7945 13.5772 21.8993L14.644 23.0243C14.7433 23.1291 14.9144 23.1381 15.0243 23.0443L16.6582 21.6485C16.768 21.5548 16.8264 21.3642 16.7879 21.225L16.3101 19.4966Z" fill="white"/>
<path d="M11.1816 21.6485C11.0719 21.5548 11.0134 21.3642 11.0519 21.225L11.3723 20.0655C11.0539 19.9094 10.7555 19.7186 10.4831 19.4966L10.0055 21.225C9.96703 21.3642 10.0255 21.5548 10.1352 21.6485L11.7691 23.0443C11.879 23.1381 12.05 23.1291 12.1493 23.0243L12.437 22.721L11.1816 21.6485Z" fill="#D9EAFC"/>
<path d="M15.5085 8.28735C15.1586 8.28735 14.8252 8.35749 14.5211 8.484C14.7828 8.80637 14.9835 9.17999 15.1063 9.5871C16.8475 9.9082 18.0805 10.8278 18.0805 12.8113V10.8594C18.0805 9.43886 16.929 8.28735 15.5085 8.28735Z" fill="#FF9518"/>
<path d="M13.397 9.44719C14.0278 9.44719 14.6294 9.4936 15.1787 9.60102C14.7814 8.22571 13.5146 7.21948 12.0113 7.21948C10.1897 7.21948 8.71301 8.69605 8.71301 10.5176V12.8114C8.71301 10.2246 10.81 9.44719 13.397 9.44719Z" fill="#FFAF10"/>
<path d="M9.64393 10.4851C9.65996 8.83563 10.8864 7.47646 12.4779 7.25255C12.3254 7.23087 12.1697 7.21948 12.0113 7.21948C10.1897 7.21948 8.71301 8.69605 8.71301 10.5176V12.8114C8.71301 11.7603 9.05927 11.0079 9.64393 10.4851Z" fill="#FF9518"/>
<path d="M8.77825 15.9164V13.8138H8.63497C7.79338 13.8138 7.11121 14.496 7.11121 15.3375C7.11121 16.179 7.79338 16.8613 8.63497 16.8613H8.8757C8.81205 16.5562 8.77825 16.2402 8.77825 15.9164Z" fill="#FFDD8D"/>
<path d="M7.66929 15.3376C7.66929 14.6399 8.13842 14.0521 8.77825 13.8714V13.8138H8.63497C7.79338 13.8138 7.11121 14.496 7.11121 15.3375C7.11121 16.179 7.79338 16.8613 8.63497 16.8613H8.8757C8.87333 16.8498 8.87174 16.838 8.86942 16.8265C8.18345 16.6781 7.66929 16.068 7.66929 15.3376Z" fill="#FF9F60"/>
<path d="M18.1582 13.8138H18.0149V15.9164C18.0149 16.2402 17.981 16.5562 17.9174 16.8613H18.1581C18.9996 16.8613 19.6819 16.179 19.6819 15.3375C19.6819 14.4961 18.9997 13.8138 18.1582 13.8138Z" fill="#FFC987"/>
<path d="M18.081 15.9164C18.081 18.5034 15.9838 20.6005 13.397 20.6005C10.81 20.6005 8.71301 18.5034 8.71301 15.9164V12.7587C8.71301 10.1718 10.8101 9.39441 13.397 9.39441C15.9839 9.39441 18.081 10.1718 18.081 12.7587V15.9164Z" fill="#FFE2B8"/>
<path d="M9.64314 15.9164V12.7587C9.64314 10.3288 11.4934 9.49555 13.862 9.40332C13.7091 9.39741 13.5539 9.39441 13.397 9.39441C10.81 9.39441 8.71301 10.1718 8.71301 12.7587V15.9164C8.71301 18.5034 10.8101 20.6005 13.397 20.6005C13.554 20.6005 13.7091 20.5924 13.862 20.5773C11.4934 20.3439 9.64314 18.3464 9.64314 15.9164Z" fill="#FFC987"/>
<path d="M11.1652 14.9817C10.8934 14.9817 10.673 14.7614 10.673 14.4895V13.6363C10.673 13.3644 10.8934 13.144 11.1652 13.144C11.4371 13.144 11.6574 13.3644 11.6574 13.6363V14.4895C11.6574 14.7614 11.4371 14.9817 11.1652 14.9817Z" fill="#A53535"/>
<path d="M15.628 14.9817C15.3561 14.9817 15.1357 14.7614 15.1357 14.4895V13.6363C15.1357 13.3644 15.3561 13.144 15.628 13.144C15.8998 13.144 16.1202 13.3644 16.1202 13.6363V14.4895C16.1202 14.7614 15.8998 14.9817 15.628 14.9817Z" fill="#A53535"/>
<path d="M13.8231 16.0427H13.2324C12.8162 16.0427 12.4777 15.7041 12.4777 15.2879V13.8879C12.4777 13.616 12.698 13.3956 12.9699 13.3956C13.2418 13.3956 13.4621 13.616 13.4621 13.8879V15.0581H13.8231C14.0949 15.0581 14.3153 15.2786 14.3153 15.5504C14.3153 15.8223 14.0949 16.0427 13.8231 16.0427Z" fill="#A53535"/>
<path d="M14.7431 16.8943H12.0506C11.823 16.8943 11.6385 17.0788 11.6385 17.3064C11.6385 18.276 12.4274 19.0648 13.3969 19.0648C14.3665 19.0648 15.1553 18.276 15.1553 17.3064C15.1553 17.0788 14.9708 16.8943 14.7431 16.8943Z" fill="white"/>
<path d="M26.9999 2.32031C26.9999 2.17529 26.8813 2.05664 26.7363 2.05664H16.8179C16.6729 2.05664 16.5542 2.17529 16.5542 2.32031V7.74246C16.5542 7.88748 16.6729 8.00613 16.8179 8.00613H19.7056C19.8506 8.00613 19.9692 8.12479 19.9692 8.26981V9.24355C19.9692 9.38857 20.0712 9.44652 20.1957 9.37222L22.2616 8.14108C22.3862 8.06683 22.6068 8.00608 22.7518 8.00608H26.7363C26.8813 8.00608 26.9999 7.88743 26.9999 7.74241V2.32031Z" fill="#FF9518"/>
<path d="M1.04636 12.5392V6.90552C1.04636 6.7605 1.16501 6.64185 1.31003 6.64185H0.263672C0.118652 6.64185 0 6.7605 0 6.90552V12.5392C0 12.6843 0.118652 12.8029 0.263672 12.8029H1.31003C1.16501 12.8029 1.04636 12.6843 1.04636 12.5392Z" fill="#293D7C"/>
<path d="M17.6006 7.74246V2.32031C17.6006 2.17529 17.7193 2.05664 17.8643 2.05664H16.8179C16.6729 2.05664 16.5542 2.17529 16.5542 2.32031V7.74246C16.5542 7.88748 16.6729 8.00613 16.8179 8.00613H17.8643C17.7193 8.00613 17.6006 7.88748 17.6006 7.74246Z" fill="#EF8318"/>
<path d="M18.777 3.60214C18.841 3.47246 18.9457 3.47246 19.0097 3.60214L19.2333 4.05513C19.2973 4.1848 19.4667 4.30793 19.6098 4.32871L20.1097 4.40143C20.2529 4.42221 20.2852 4.52172 20.1816 4.62265L19.8199 4.97534C19.7163 5.07627 19.6516 5.27545 19.676 5.41788L19.7614 5.91591C19.786 6.0584 19.7011 6.11999 19.5732 6.0527L19.126 5.81756C18.998 5.75032 18.7886 5.75032 18.6606 5.81756L18.2135 6.0527C18.0855 6.11999 18.0007 6.0584 18.0252 5.91591L18.1106 5.41788C18.135 5.2755 18.0703 5.07627 17.9668 4.97534L17.6051 4.62265C17.5015 4.52172 17.5339 4.42216 17.6769 4.40143L18.1769 4.32871C18.32 4.30788 18.4895 4.1848 18.5534 4.05513L18.777 3.60214Z" fill="white"/>
<path d="M21.9397 3.60214C22.0037 3.47246 22.1084 3.47246 22.1724 3.60214L22.396 4.05513C22.46 4.1848 22.6294 4.30793 22.7725 4.32871L23.2725 4.40143C23.4157 4.42221 23.4479 4.52172 23.3444 4.62265L22.9826 4.97534C22.8791 5.07627 22.8144 5.27545 22.8387 5.41788L22.9242 5.91591C22.9488 6.0584 22.864 6.11999 22.736 6.0527L22.2888 5.81756C22.1608 5.75032 21.9514 5.75032 21.8234 5.81756L21.3763 6.0527C21.2482 6.11999 21.1635 6.0584 21.188 5.91591L21.2734 5.41788C21.2978 5.2755 21.2331 5.07627 21.1296 4.97534L20.7678 4.62265C20.6642 4.52172 20.6966 4.42216 20.8397 4.40143L21.3396 4.32871C21.4828 4.30788 21.6522 4.1848 21.7161 4.05513L21.9397 3.60214Z" fill="white"/>
<path d="M25.1024 3.60214C25.1665 3.47246 25.2712 3.47246 25.3351 3.60214L25.5587 4.05513C25.6227 4.1848 25.7922 4.30793 25.9352 4.32871L26.4352 4.40143C26.5784 4.42221 26.6106 4.52172 26.5071 4.62265L26.1453 4.97534C26.0417 5.07627 25.9771 5.27545 26.0015 5.41788L26.0869 5.91591C26.1114 6.0584 26.0266 6.11999 25.8987 6.0527L25.4514 5.81756C25.3234 5.75032 25.1141 5.75032 24.986 5.81756L24.5389 6.0527C24.4108 6.11999 24.326 6.0584 24.3506 5.91591L24.436 5.41788C24.4604 5.2755 24.3957 5.07627 24.2922 4.97534L23.9304 4.62265C23.8268 4.52172 23.8592 4.42216 24.0023 4.40143L24.5022 4.32871C24.6453 4.30788 24.8148 4.1848 24.8787 4.05513L25.1024 3.60214Z" fill="white"/>
<path d="M7.15978 8.71191H1.96887C1.75045 8.71191 1.57336 8.53488 1.57336 8.31641C1.57336 8.09793 1.75045 7.9209 1.96887 7.9209H7.15978C7.37821 7.9209 7.55529 8.09793 7.55529 8.31641C7.55529 8.53488 7.37826 8.71191 7.15978 8.71191Z" fill="#91E0E8"/>
<path d="M7.15978 10.0118H1.96887C1.75045 10.0118 1.57336 9.83481 1.57336 9.61633C1.57336 9.39785 1.75045 9.22083 1.96887 9.22083H7.15978C7.37821 9.22083 7.55529 9.39785 7.55529 9.61633C7.55529 9.83481 7.37826 10.0118 7.15978 10.0118Z" fill="#91E0E8"/>
<path d="M4.57453 11.3118H1.96887C1.75045 11.3118 1.57336 11.1347 1.57336 10.9163C1.57336 10.6978 1.75045 10.5208 1.96887 10.5208H4.57453C4.79296 10.5208 4.97004 10.6978 4.97004 10.9163C4.97004 11.1347 4.79296 11.3118 4.57453 11.3118Z" fill="#91E0E8"/>
</g>
<defs>
<clipPath id="clip0_1_2096">
<rect width="27" height="27" fill="white"/>
</clipPath>
</defs>
</svg>
