<svg width="27" height="27" viewBox="0 0 27 27" fill="none" xmlns="http://www.w3.org/2000/svg">
<path d="M22.376 23.4677C24.866 21.1126 26.4199 17.7779 26.4199 14.08C26.4199 6.94452 20.6354 1.16003 13.4999 1.16003C6.36444 1.16003 0.579956 6.94452 0.579956 14.08C0.579956 21.2155 6.36444 27 13.4999 27C14.0591 27 14.6099 26.9644 15.1504 26.8955L22.376 23.4677Z" fill="#FF4155"/>
<path d="M20.9267 19.2778C20.8134 18.8611 20.7734 18.4279 20.8086 17.9976L21.0196 16.0103C21.1226 14.7634 20.9326 13.5141 20.3806 12.3913C18.9544 9.49024 19.2816 9.27972 19.2372 6.40047C19.2372 5.81233 18.7604 5.33545 18.1722 5.33545C17.584 5.33545 17.1072 5.81227 17.1072 6.40047C17.1072 18.1092 17.129 17.25 17.0568 17.5933V19.1265C17.0568 20.4183 16.0058 21.4693 14.714 21.4693C13.8561 21.4693 10.8974 21.4693 8.88416 21.4693C9.7798 22.7149 11.0051 23.6901 12.427 24.2807C12.4358 24.2844 12.4446 24.288 12.4534 24.2918C13.552 24.7558 14.7787 25.6817 14.9837 26.8305L15.0035 26.9126C17.8966 26.5772 20.498 25.2866 22.4844 23.3637L20.9267 19.2778Z" fill="#F9BA8F"/>
<path d="M4.92858 5.37261L4.60421 5.07207C4.10413 4.60875 3.31591 4.63881 2.85259 5.13884C2.38926 5.63892 2.41932 6.42714 2.9194 6.89046L4.92864 8.75214V5.37261H4.92858Z" fill="#F9BA8F"/>
<path d="M3.57858 5.95882C3.27183 5.67458 3.14278 5.26821 3.19515 4.88098C3.07001 4.94505 2.95336 5.03017 2.85259 5.13885C2.38926 5.63893 2.41932 6.42715 2.9194 6.89048L4.92864 8.75216V7.20973L3.57858 5.95882Z" fill="#FCAD6D"/>
<path d="M21.0237 19.5322C20.5837 22.5658 17.9729 24.8963 14.8173 24.8963C14.2725 24.8963 13.744 24.8268 13.2401 24.6962C14.0756 25.2071 14.8272 25.9537 14.9836 26.8305L15.0034 26.9125C17.8965 26.5771 20.4978 25.2865 22.4843 23.3636L21.0237 19.5322Z" fill="#FD995B"/>
<path d="M15.2726 21.5196H6.7173C5.70565 21.5196 4.88257 20.6965 4.88257 19.6848V1.83479C4.88257 0.823078 5.70559 0 6.7173 0H15.2726C16.2843 0 17.1074 0.823078 17.1074 1.83479V19.6848C17.1074 20.6965 16.2843 21.5196 15.2726 21.5196Z" fill="#2A428C"/>
<path d="M6.7173 0C5.70565 0 4.88257 0.823078 4.88257 1.83473V19.6848C4.88257 20.6965 5.70565 21.5196 6.7173 21.5196H9.91881C9.38097 20.9817 9.91881 20.3781 9.91881 20.3781C8.58763 18.4549 9.99327 16.5584 9.99327 16.5584L10.5826 4.86918C9.00107 4.31214 9.55178 2.0829 9.55178 2.0829C9.15796 1.68908 9.46018 1.31483 9.46018 1.31483V0.680643C9.13539 0.481781 9.28505 0.0798926 9.3189 0L6.7173 0Z" fill="#142766"/>
<path d="M9.6436 1.31485H9.4604C9.28527 1.31485 9.14331 1.17289 9.14331 0.997756C9.14331 0.822625 9.28527 0.680664 9.4604 0.680664H9.6436C9.81873 0.680664 9.96069 0.822625 9.96069 0.997756C9.96069 1.17289 9.81873 1.31485 9.6436 1.31485Z" fill="#3C58A0"/>
<path d="M12.4859 1.31485H10.7255C10.5504 1.31485 10.4084 1.17289 10.4084 0.997756C10.4084 0.822625 10.5504 0.680664 10.7255 0.680664H12.4859C12.661 0.680664 12.803 0.822625 12.803 0.997756C12.803 1.17289 12.661 1.31485 12.4859 1.31485Z" fill="#3C58A0"/>
<path d="M15.2728 1.14148H13.987C13.7472 1.14148 13.553 1.33581 13.553 1.57548C13.553 1.8545 13.3247 2.08284 13.0456 2.08284H8.9446C8.66558 2.08284 8.43724 1.85455 8.43724 1.57548C8.43724 1.33581 8.24292 1.14148 8.00324 1.14148H6.71742C6.33456 1.14148 6.02417 1.45187 6.02417 1.83473V19.6848C6.02417 20.0676 6.33451 20.378 6.71742 20.378H15.2728C15.6556 20.378 15.966 20.0676 15.966 19.6848C15.966 17.8486 15.966 2.32479 15.966 1.83473C15.966 1.45187 15.6556 1.14148 15.2728 1.14148Z" fill="#E9EFFF"/>
<path d="M8.94461 2.08284C8.66559 2.08284 8.43725 1.85455 8.43725 1.57548C8.43725 1.33575 8.24292 1.14148 8.00324 1.14148H6.71742C6.33456 1.14148 6.02417 1.45182 6.02417 1.83473V19.6848C6.02417 20.0676 6.33451 20.378 6.71742 20.378H9.91893C8.58775 18.4549 9.99339 16.5583 9.99339 16.5583L10.5827 4.86911C9.00119 4.31208 9.5519 2.08284 9.5519 2.08284H8.94461Z" fill="#BEC8F7"/>
<path d="M13.0264 16.9091C15.5996 16.9091 17.8518 15.1549 17.8518 15.1549C18.8773 14.0092 19.5012 12.4966 19.5012 10.8382C19.5012 7.26226 16.6023 4.3634 13.0264 4.3634C9.45049 4.3634 6.55164 7.26226 6.55164 10.8382C6.55164 12.4966 7.17548 14.0092 8.2009 15.1548C8.2009 15.1547 10.4532 16.9091 13.0264 16.9091Z" fill="#73C3F9"/>
<path d="M15.0436 11.6048C15.0436 11.6048 14.0966 6.17098 13.3569 5.63124C12.6465 5.11286 13.1912 4.42262 13.2356 4.36862C13.1663 4.36646 13.0972 4.3634 13.0274 4.3634C9.45142 4.3634 6.55261 7.26226 6.55261 10.8382C6.55261 12.4966 7.17646 14.0092 8.20188 15.1548C8.20188 15.1548 10.4542 16.9092 13.0274 16.9092C15.6006 16.9092 17.8527 15.1549 17.8527 15.1549C18.4717 14.4635 18.9429 13.6378 19.2204 12.7276C16.9632 13.723 15.0436 11.6048 15.0436 11.6048Z" fill="#4FABF7"/>
<path d="M11.2951 14.9072C11.789 15.2907 12.3986 15.4991 13.0263 15.4991C13.6541 15.4991 14.2636 15.2908 14.7575 14.9072C14.9868 14.7292 15.2256 14.5099 15.4562 14.252C15.3231 14.2092 15.1878 14.1697 15.0491 14.135C14.9651 14.114 14.8913 14.0635 14.8437 13.9962C14.6241 13.6864 14.5633 13.2075 14.5513 12.8601C14.3973 13.0396 14.2356 13.1896 14.0811 13.3096C13.4616 13.7907 12.5902 13.79 11.9715 13.3096C11.817 13.1896 11.6553 13.0396 11.5013 12.8601C11.4891 13.2152 11.4258 13.7078 11.1941 14.0166C11.1546 14.0693 11.0937 14.1124 11.0206 14.1305C10.8764 14.1662 10.7352 14.207 10.5963 14.2518C10.8269 14.5098 11.0658 14.7291 11.2951 14.9072Z" fill="#FCAD6D"/>
<path d="M13.0178 13.6698C12.6479 13.6681 12.2785 13.5481 11.9713 13.3096C11.8169 13.1896 11.6553 13.0396 11.5012 12.8601C11.4889 13.2152 11.4258 13.7078 11.194 14.0166C11.1544 14.0694 11.0935 14.1124 11.0205 14.1305C10.8763 14.1662 10.7351 14.207 10.5962 14.2519C10.8269 14.5098 11.0657 14.7292 11.295 14.9073C11.5732 15.1233 11.8889 15.2815 12.2231 15.3804C12.755 14.845 12.9486 14.1447 13.0178 13.6698Z" fill="#FD995B"/>
<path d="M17.2844 15.0475C17.0876 15.0314 16.9829 14.955 16.751 14.8243C16.3075 14.5742 15.8494 14.3709 15.3557 14.2208C15.129 14.4785 14.8928 14.6954 14.6665 14.871C14.1986 15.2344 13.6212 15.4318 13.0266 15.4318C12.4319 15.4318 11.8545 15.2344 11.3866 14.871C11.1604 14.6954 10.9242 14.4785 10.6974 14.2209C10.2052 14.3707 9.74426 14.5749 9.30214 14.8243C9.07022 14.955 8.96554 15.0314 8.76873 15.0475C8.5617 15.0644 8.37307 15.1013 8.20105 15.1548C9.38662 16.4792 11.1091 17.313 13.0266 17.313C14.944 17.313 16.6665 16.4792 17.8521 15.1548C17.68 15.1013 17.4914 15.0644 17.2844 15.0475Z" fill="#3C58A0"/>
<path d="M12.5173 5.64471C10.9857 5.85338 10.8401 6.72176 10.8394 7.04038C10.8393 7.1072 10.8022 7.16911 10.7422 7.19832C9.94547 7.58587 10.375 9.45377 10.375 9.45377C10.455 9.4591 10.5751 9.52776 10.6375 9.55802C10.6528 9.46284 10.6777 9.36913 10.713 9.27859C10.7399 9.20956 10.7735 9.13984 10.8155 9.07398C10.8884 8.9597 10.9215 8.82481 10.9116 8.69002C10.883 8.30036 10.8605 7.56873 11.3749 7.33733C11.8106 7.14126 12.3452 7.2548 12.6861 7.36812C12.9075 7.44174 13.1472 7.44174 13.3686 7.36812C13.7095 7.25475 14.244 7.14121 14.6798 7.33733C15.1927 7.56809 15.1716 8.29599 15.1433 8.68669C15.1335 8.82254 15.1658 8.95875 15.2392 9.07398C15.2826 9.14195 15.3169 9.21409 15.3443 9.28528C15.3782 9.37377 15.4023 9.46521 15.4172 9.55808C15.496 9.51995 15.6447 9.44212 15.741 9.45572C15.7528 9.04729 15.7905 8.60696 15.7905 8.60696C16.2443 6.384 14.1664 5.42001 12.5173 5.64471Z" fill="#2A428C"/>
<path d="M12.5163 5.6447C10.9847 5.85337 10.8391 6.72175 10.8384 7.04037C10.8383 7.10718 10.8013 7.16909 10.7412 7.19831C9.94449 7.58585 10.3741 9.45375 10.3741 9.45375C10.4541 9.45908 10.5741 9.52774 10.6365 9.55801C10.6518 9.46282 10.6768 9.36911 10.712 9.27852C10.7389 9.20949 10.7725 9.13977 10.8145 9.07391C10.8874 8.95963 10.9206 8.82479 10.9106 8.68995C10.882 8.30024 10.8595 7.56866 11.3739 7.33726C11.8097 7.1412 12.3442 7.25473 12.6851 7.36806C12.7783 7.39907 12.8749 7.41621 12.9719 7.42111C12.957 7.39559 12.9412 7.37027 12.9234 7.34533C12.2663 6.4218 13.1797 5.74885 13.3559 5.63126C13.0733 5.6031 12.7889 5.60758 12.5163 5.6447Z" fill="#1C2E7A"/>
<path d="M15.8761 9.50872C15.7568 9.3994 15.5192 9.45483 15.4165 9.52175C15.439 9.66191 15.4403 9.8053 15.4208 9.94689L15.2996 10.8299C15.2996 10.9011 15.2973 10.9709 15.2932 11.0395C15.5888 11.1287 15.7357 10.8633 15.7604 10.6812C15.7711 10.6027 15.7885 10.5255 15.8126 10.4501C15.8913 10.2045 16.175 9.78262 15.8761 9.50872Z" fill="#FCAD6D"/>
<path d="M10.1772 9.50872C10.2965 9.3994 10.5341 9.45483 10.6368 9.52175C10.6143 9.66191 10.613 9.8053 10.6325 9.94689L10.7537 10.8299C10.7537 10.9011 10.756 10.9709 10.7601 11.0395C10.4645 11.1287 10.3176 10.8633 10.2929 10.6812C10.2822 10.6027 10.2648 10.5255 10.2407 10.4501C10.162 10.2045 9.87834 9.78262 10.1772 9.50872Z" fill="#FD995B"/>
<path d="M15.3798 9.24896C15.3526 9.17776 15.3181 9.10568 15.2748 9.03765C15.2014 8.92248 15.1691 8.78621 15.1789 8.65037C15.2072 8.25966 15.192 7.49554 14.6792 7.26472C14.2434 7.06865 13.7089 7.18219 13.368 7.29551C13.1466 7.36913 12.9068 7.36913 12.6854 7.29551C12.3445 7.18219 11.81 7.06865 11.3743 7.26472C10.8599 7.49617 10.8461 8.26403 10.8747 8.65369C10.8846 8.78848 10.8514 8.92332 10.7786 9.03765C10.7366 9.10351 10.703 9.17328 10.6761 9.24226C10.5889 9.46611 10.5636 9.70896 10.5962 9.94668L10.7174 10.8299C10.7174 12.0997 11.3953 12.9628 11.9718 13.4105C12.2728 13.6442 12.6441 13.7711 13.0267 13.7711C13.4092 13.7711 13.7806 13.6442 14.0815 13.4105C14.6581 12.9628 15.3359 12.0997 15.3359 10.8299L15.4571 9.94689C15.4895 9.71149 15.4649 9.47107 15.3798 9.24896Z" fill="#F9BA8F"/>
<path d="M13.6557 13.4105C13.0792 12.9628 12.4014 12.0997 12.4014 10.8299L12.2801 9.94668C12.2475 9.70896 12.2729 9.46611 12.36 9.24226C12.3869 9.17323 12.4204 9.10351 12.4625 9.03765C12.5354 8.92332 12.5685 8.78848 12.5586 8.65369C12.5327 8.30137 12.5416 7.63992 12.9237 7.3453C12.8431 7.3376 12.7631 7.32135 12.6854 7.29551C12.3445 7.18219 11.81 7.06865 11.3743 7.26472C10.8599 7.49617 10.8461 8.26403 10.8747 8.65369C10.8846 8.78848 10.8514 8.92332 10.7786 9.03765C10.7366 9.10351 10.703 9.17328 10.6761 9.24226C10.5889 9.46611 10.5636 9.70896 10.5962 9.94668L10.7174 10.8299C10.7174 12.0997 11.3953 12.9628 11.9718 13.4105C12.2728 13.6442 12.6441 13.7711 13.0267 13.7711C13.3233 13.7711 13.613 13.6945 13.8686 13.5512C13.7946 13.5097 13.7233 13.463 13.6557 13.4105Z" fill="#FCAD6D"/>
<path d="M11.3865 14.871C11.1603 14.6954 10.9241 14.4785 10.6973 14.2208C10.205 14.3707 9.7442 14.5749 9.30202 14.8242C9.0701 14.9549 8.96542 15.0313 8.76861 15.0474C8.56158 15.0644 8.373 15.1012 8.20093 15.1547C8.7086 15.7218 9.31531 16.198 9.993 16.5583C10.2462 16.3499 10.6005 16.1604 11.097 16.0241C11.6167 15.8813 11.9984 15.6255 12.2792 15.3233C11.9577 15.23 11.6539 15.0786 11.3865 14.871Z" fill="#2A428C"/>
<path d="M20.6504 4.80219V4.30639C20.6504 3.3193 19.8502 2.51917 18.8632 2.51917C17.8762 2.51917 17.076 3.31936 17.076 4.30639V4.80219C17.076 5.67991 16.779 6.53183 16.2334 7.21933H21.4931C20.9474 6.53178 20.6504 5.67991 20.6504 4.80219Z" fill="#FFDD40"/>
<path d="M18.7735 3.91445C18.7735 3.18286 19.3167 2.87163 19.7258 2.7409C19.4701 2.59962 19.1761 2.51904 18.8632 2.51904C17.8761 2.51904 17.076 3.31923 17.076 4.30626V4.80207C17.076 5.67978 16.779 6.53165 16.2334 7.21915H21.4931C21.2785 6.94889 21.1031 6.65289 20.9684 6.34023H19.4398C19.0718 6.34023 18.7736 6.04196 18.7736 5.67403V3.91445H18.7735Z" fill="#FFB332"/>
<path d="M19.5814 9.19445C19.3524 9.59116 18.8451 9.72706 18.4484 9.49804C18.0517 9.26901 17.9158 8.76176 18.1448 8.36504C18.3739 7.96832 18.8811 7.83243 19.2778 8.06145C19.6745 8.29048 19.8104 8.79773 19.5814 9.19445Z" fill="#FFDD40"/>
<path d="M21.4931 8.07786H16.2334C15.9721 8.07786 15.7603 7.86602 15.7603 7.60472C15.7603 7.34343 15.9721 7.13159 16.2334 7.13159H21.4931C21.7544 7.13159 21.9662 7.34343 21.9662 7.60472C21.9662 7.86602 21.7544 8.07786 21.4931 8.07786Z" fill="#FCF2C8"/>
<path d="M18.1685 7.60472C18.1685 7.34343 18.3803 7.13159 18.6416 7.13159H16.2334C15.9721 7.13159 15.7603 7.34343 15.7603 7.60472C15.7603 7.86602 15.9721 8.07786 16.2334 8.07786H18.6416C18.3803 8.07786 18.1685 7.86602 18.1685 7.60472Z" fill="#FFE98D"/>
<path d="M6.73249 11.9096C6.3248 12.3496 5.63768 12.3758 5.19772 11.9681L3.37854 10.2825C2.93858 9.87483 2.91237 9.18765 3.32006 8.74768C3.72775 8.30772 4.41488 8.28151 4.85484 8.6892L6.67401 10.3748C7.11397 10.7825 7.14013 11.4696 6.73249 11.9096Z" fill="#F9BA8F"/>
<path d="M5.94613 11.202L4.12695 9.51636C3.82267 9.23444 3.71663 8.81889 3.81476 8.44385C3.63135 8.49679 3.45928 8.59757 3.32006 8.74781C2.91237 9.18777 2.93858 9.87495 3.37854 10.2826L5.19773 11.9682C5.63769 12.3758 6.32482 12.3497 6.73251 11.9097C6.85823 11.774 6.94245 11.6147 6.98622 11.4474C6.63247 11.5495 6.23586 11.4704 5.94613 11.202Z" fill="#FCAD6D"/>
<path d="M6.73249 17.8343C6.3248 18.2743 5.63768 18.3005 5.19772 17.8928L3.37854 16.2072C2.93858 15.7995 2.91237 15.1123 3.32006 14.6724C3.72775 14.2324 4.41488 14.2062 4.85484 14.6139L6.67401 16.2995C7.11397 16.7071 7.14013 17.3943 6.73249 17.8343Z" fill="#F9BA8F"/>
<path d="M5.94613 17.1265L4.12695 15.4409C3.82267 15.159 3.71663 14.7435 3.81476 14.3684C3.63135 14.4214 3.45928 14.5221 3.32006 14.6724C2.91237 15.1123 2.93858 15.7995 3.37854 16.2071L5.19773 17.8927C5.63769 18.3004 6.32482 18.2742 6.73251 17.8343C6.85823 17.6986 6.94245 17.5393 6.98622 17.372C6.63247 17.4741 6.23586 17.395 5.94613 17.1265Z" fill="#FCAD6D"/>
<path d="M6.73249 14.872C6.3248 15.312 5.63768 15.3382 5.19772 14.9305L3.37854 13.2449C2.93858 12.8372 2.91237 12.1501 3.32006 11.7101C3.72775 11.2701 4.41488 11.2439 4.85484 11.6516L6.67401 13.3372C7.11397 13.7448 7.14013 14.432 6.73249 14.872Z" fill="#F9BA8F"/>
<path d="M5.94613 14.1642L4.12695 12.4786C3.82267 12.1967 3.71663 11.7812 3.81476 11.4061C3.63135 11.4591 3.45923 11.5598 3.32006 11.7101C2.91237 12.1501 2.93858 12.8372 3.37854 13.2449L5.19773 14.9305C5.63769 15.3382 6.32482 15.312 6.73251 14.872C6.85823 14.7363 6.94245 14.577 6.98622 14.4097C6.63247 14.5118 6.23586 14.4327 5.94613 14.1642Z" fill="#FCAD6D"/>
<path d="M20.7685 2.04742C20.571 1.95419 20.4864 1.71841 20.5797 1.52097L20.8065 1.04072C20.8997 0.843178 21.1354 0.758645 21.333 0.851932C21.5305 0.945167 21.615 1.18094 21.5217 1.37838L21.295 1.85863C21.2017 2.05623 20.9659 2.14071 20.7685 2.04742Z" fill="#FFDD40"/>
<path d="M22.2508 5.06996L21.7705 4.8432C21.573 4.74991 21.4885 4.51419 21.5818 4.3167C21.6751 4.11916 21.9108 4.03463 22.1083 4.12797L22.5885 4.35472C22.7861 4.44801 22.8706 4.68373 22.7773 4.88128C22.6839 5.07876 22.4483 5.16324 22.2508 5.06996Z" fill="#FFDD40"/>
<path d="M22.6506 3.0732L22.1508 3.25244C21.9452 3.32611 21.7187 3.21922 21.645 3.01361C21.5713 2.80805 21.6782 2.58203 21.8838 2.50783L22.3837 2.32859C22.5893 2.25492 22.8158 2.36181 22.8895 2.56742C22.9626 2.77156 22.8581 2.99847 22.6506 3.0732Z" fill="#FFDD40"/>
<path d="M19.1569 8.95188C19.3193 8.95188 19.4509 8.82025 19.4509 8.65789C19.4509 8.49552 19.3193 8.36389 19.1569 8.36389C18.9945 8.36389 18.8629 8.49552 18.8629 8.65789C18.8629 8.82025 18.9945 8.95188 19.1569 8.95188Z" fill="#FFE98D"/>
</svg>
