<svg width="27" height="27" viewBox="0 0 27 27" fill="none" xmlns="http://www.w3.org/2000/svg">
<path d="M13.5 27C20.9558 27 27 20.9558 27 13.5C27 6.04416 20.9558 0 13.5 0C6.04416 0 0 6.04416 0 13.5C0 20.9558 6.04416 27 13.5 27Z" fill="#F6C863"/>
<path d="M6.52075 11.4635L9.26483 10.3938V7.04834H6.52075V11.4635Z" fill="#EEEFEE"/>
<path d="M6.57202 10.9464L13.5001 6.49585L20.4281 10.9464V20.9601H6.57202V10.9464Z" fill="#EEEFEE"/>
<path d="M5.83757 21.687H21.1622C21.2605 21.687 21.3402 21.6073 21.3402 21.509V20.4113C21.3402 20.3129 21.2605 20.2332 21.1622 20.2332H5.83757C5.73925 20.2332 5.65954 20.3129 5.65954 20.4113V21.509C5.65954 21.6073 5.73925 21.687 5.83757 21.687Z" fill="#EF5261"/>
<path d="M5.64509 12.8883L13.3932 7.09046C13.424 7.06735 13.4615 7.05486 13.5 7.05486C13.5385 7.05486 13.5759 7.06735 13.6067 7.09046L21.3549 12.8883C21.374 12.9027 21.3958 12.9131 21.419 12.9189C21.4422 12.9247 21.4663 12.9258 21.4899 12.922C21.5136 12.9183 21.5362 12.9098 21.5565 12.8971C21.5768 12.8844 21.5943 12.8678 21.608 12.8482L22.2222 11.9751C22.249 11.9372 22.2598 11.8904 22.2525 11.8446C22.2451 11.7988 22.2202 11.7577 22.183 11.73L13.6054 5.34811C13.5747 5.3253 13.5374 5.31299 13.4991 5.31299C13.4608 5.31299 13.4236 5.3253 13.3928 5.34811L4.81779 11.7294C4.78058 11.7571 4.75566 11.7982 4.74833 11.844C4.741 11.8898 4.75185 11.9366 4.77856 11.9745L5.39281 12.8476C5.40647 12.8671 5.42391 12.8837 5.44409 12.8964C5.46428 12.909 5.48681 12.9175 5.51034 12.9213C5.53386 12.9251 5.55791 12.9241 5.58106 12.9185C5.60421 12.9128 5.62598 12.9025 5.64509 12.8883Z" fill="#EF5261"/>
<path d="M6.36682 7.29321H9.41908C9.49795 7.29321 9.56189 7.22928 9.56189 7.15041V6.52371C9.56189 6.44484 9.49795 6.38091 9.41908 6.38091H6.36682C6.28795 6.38091 6.22401 6.44484 6.22401 6.52371V7.15041C6.22401 7.22928 6.28795 7.29321 6.36682 7.29321Z" fill="#EF5261"/>
<path d="M11.1047 14.2031H15.8951V20.2332H11.1047V14.2031Z" fill="#575B6D"/>
</svg>
