<svg width="27" height="27" viewBox="0 0 27 27" fill="none" xmlns="http://www.w3.org/2000/svg">
<path d="M13.5 26.6045C20.7374 26.6045 26.6045 20.7374 26.6045 13.5C26.6045 6.26259 20.7374 0.395508 13.5 0.395508C6.26259 0.395508 0.395508 6.26259 0.395508 13.5C0.395508 20.7374 6.26259 26.6045 13.5 26.6045Z" fill="#E6F7FE"/>
<path d="M23.4457 22.0329C21.0426 24.8316 17.4783 26.6045 13.5 26.6045C6.26273 26.6045 0.395508 20.7373 0.395508 13.5C0.395508 9.82493 1.90846 6.50319 4.34479 4.12329C2.37621 6.41618 1.18652 9.39726 1.18652 12.6562C1.18652 19.8935 7.05375 25.7607 14.291 25.7607C17.8532 25.7607 21.0832 24.339 23.4457 22.0329Z" fill="#D3EFFD"/>
<path d="M13.5 22.9922C18.7424 22.9922 22.9922 18.7424 22.9922 13.5C22.9922 8.25761 18.7424 4.00781 13.5 4.00781C8.25761 4.00781 4.00781 8.25761 4.00781 13.5C4.00781 18.7424 8.25761 22.9922 13.5 22.9922Z" fill="#D3EFFD"/>
<path d="M21.8906 17.9349C20.2959 20.9407 17.1329 22.9921 13.5 22.9921C8.26611 22.9921 4.00781 18.7338 4.00781 13.4999C4.00781 11.2181 4.81729 9.12189 6.16412 7.48291C5.46117 8.8076 5.0625 10.3169 5.0625 11.9179C5.0625 17.1518 9.3208 21.4101 14.5547 21.4101C17.5068 21.4101 20.1487 20.0553 21.8906 17.9349Z" fill="#B2E5FB"/>
<path d="M19.1325 9.314C19.0856 9.46745 19.0107 9.60931 18.9132 9.73376C18.8156 9.85821 18.6954 9.96474 18.5577 10.0465L17.5004 10.702C16.9483 9.55921 15.1348 8.49029 15.1348 8.49029C15.1348 8.49029 14.0843 6.64142 13.4836 6.27122C14.0637 5.62681 15.0177 5.48073 15.7649 5.92107L18.4233 7.48886C19.0529 7.86011 19.3461 8.61474 19.1325 9.314Z" fill="#F7F9FA"/>
<path d="M18.1733 10.2849L17.5004 10.702C16.9483 9.55928 15.293 8.59582 15.293 8.59582L13.4836 6.27129C13.684 6.04928 13.9287 5.88633 14.194 5.78613H14.1945C14.7493 6.14895 15.2792 6.55764 15.7797 7.00852C16.8138 7.9398 17.5906 9.09732 18.1733 10.2849Z" fill="#E9EDF1"/>
<path d="M21.5381 20.4868C21.6315 20.1976 21.8451 19.9628 22.1242 19.8425L23.4704 19.2623C23.5468 19.2294 23.6198 19.1881 23.6843 19.1356C24.1182 18.7823 24.1211 18.1437 23.7224 17.7845L23.5196 17.6017C22.6491 16.8175 21.4521 16.626 20.4229 17.0009C20.3665 17.0215 20.3028 17.0107 20.2589 16.9696C19.482 16.2424 18.946 15.296 18.7105 14.2566C18.2167 12.0776 17.2278 9.37763 15.2505 7.59616C14.2739 6.71629 13.2319 6.05679 12.202 5.58545L6.27558 5.69524L6.27136 12.0935C6.85012 13.0841 7.67547 13.6991 8.66703 14.5924C10.6682 16.3955 13.4997 17.0937 15.7307 17.351C16.7933 17.4735 18.1262 18.1248 18.9318 18.8261C18.5962 19.9268 19.0224 21.0108 19.9338 21.832L21.1002 21.842L21.5381 20.4868Z" fill="#61AAB8"/>
<path d="M21.1003 21.842L21.0797 21.9052C21.0449 22.0134 20.9563 22.1731 20.8835 22.2607L20.8809 22.2638C20.5529 22.6277 19.9918 22.6572 19.6279 22.3292L19.4249 22.1462C18.5405 21.3494 18.2299 20.1539 18.5194 19.0782C18.5353 19.018 18.5173 18.9537 18.4699 18.9136C17.6778 18.2513 16.707 17.8389 15.6781 17.7202C13.4469 17.4629 10.6156 16.7647 8.61435 14.9617C7.62294 14.0684 6.84986 13.0844 6.27136 12.0935C6.47101 12.0164 6.3985 11.5858 6.59199 11.496C6.79459 11.402 7.26287 11.6482 7.45789 11.5408C8.02742 12.4863 8.77466 13.4229 9.72177 14.2762C11.723 16.0791 14.5543 16.7773 16.7855 17.0347C17.8144 17.1533 18.7852 17.5657 19.5773 18.2281C19.6248 18.2682 19.6427 18.3325 19.6269 18.3926C19.3374 19.4684 19.648 20.6639 20.5323 21.4607L20.7353 21.6437C20.8435 21.7412 20.969 21.8072 21.1003 21.842Z" fill="#5595A2"/>
<path d="M12.2015 5.58565C11.3988 8.5488 9.13496 10.9878 6.27095 12.0936C4.63355 9.29077 6.02331 4.98464 6.46649 4.84511C7.79598 4.42661 9.97037 4.56445 12.2015 5.58565Z" fill="#F7F9FA"/>
<path d="M7.4579 11.541C7.07663 11.7509 6.68007 11.936 6.27138 12.0937C5.47488 10.7173 4.91737 9.1573 4.87866 7.55903C4.86284 6.61561 5.06745 5.85993 5.44819 5.437C5.71988 5.13947 6.0991 4.96092 6.48179 4.84058C5.64858 5.92901 5.79149 8.77508 7.4579 11.541Z" fill="#E9EDF1"/>
<path d="M8.54187 7.96802C9.00786 7.96802 9.38562 7.59026 9.38562 7.12427C9.38562 6.65828 9.00786 6.28052 8.54187 6.28052C8.07588 6.28052 7.69812 6.65828 7.69812 7.12427C7.69812 7.59026 8.07588 7.96802 8.54187 7.96802Z" fill="#E9EDF1"/>
<path d="M11.2645 23.687C10.2006 23.7242 8.47705 22.5051 7.54123 21.9901C4.88431 20.528 5.70702 15.411 5.79034 15.4568L6.27075 15.7212L7.0296 16.1388L10.5471 18.7733L14.5967 20.3029L15.8359 20.9848C15.9194 21.0307 15.9435 21.1395 15.8878 21.2168C15.3313 21.9892 14.5966 22.612 13.7581 23.0395C12.9943 23.4289 12.1444 23.6563 11.2647 23.687C11.2646 23.687 11.2646 23.687 11.2645 23.687Z" fill="#FFC736"/>
<path d="M13.7577 23.0397C12.9941 23.4294 12.144 23.6567 11.2644 23.6873C11.2644 23.6873 11.2644 23.6873 11.2639 23.6873C10.2002 23.7242 9.14289 23.4721 8.20738 22.9569C5.5502 21.495 4.45544 18.2816 5.56645 15.5369C5.60215 15.4487 5.70667 15.411 5.79004 15.4569L6.27045 15.7212C5.50422 18.3321 6.62324 21.223 9.10386 22.5878C10.0394 23.103 11.0967 23.3551 12.1603 23.3182H12.1609C12.7093 23.2992 13.2461 23.2032 13.7577 23.0397Z" fill="#FAAA0A"/>
<path d="M11.2151 22.108C10.4347 22.1353 9.65841 21.9496 8.97007 21.5708C7.95198 21.0105 7.21296 20.0874 6.88922 18.9713C6.61495 18.0259 6.66652 17.0378 7.02928 16.1389L10.4412 18.0164L10.6557 18.521L11.2075 18.4381L14.5964 20.303C13.816 21.3818 12.5629 22.0609 11.2151 22.108Z" fill="#FFE07D"/>
<path d="M23.046 3.95402C20.4961 1.40426 17.106 0 13.5 0C10.5889 0 7.81655 0.912041 5.48248 2.63756C5.30682 2.76745 5.26969 3.01509 5.39958 3.19075C5.52941 3.36635 5.77705 3.40348 5.95271 3.27364C8.14968 1.64948 10.7594 0.791016 13.5 0.791016C20.5078 0.791016 26.209 6.49223 26.209 13.5C26.209 20.5078 20.5078 26.209 13.5 26.209C6.49223 26.209 0.791016 20.5078 0.791016 13.5C0.791016 10.073 2.13469 6.8599 4.5745 4.45273C4.72996 4.29933 4.73164 4.04889 4.57824 3.89343C4.42484 3.73792 4.1744 3.73628 4.01894 3.88969C1.42726 6.44662 0 9.85969 0 13.5C0 17.106 1.40426 20.4962 3.95402 23.046C6.50389 25.5957 9.89402 27 13.5 27C17.106 27 20.4961 25.5957 23.046 23.046C25.5957 20.4962 27 17.106 27 13.5C27 9.89402 25.5957 6.50384 23.046 3.95402Z" fill="black"/>
<path d="M4.6554 9.07538C3.773 10.8213 3.43186 12.7683 3.66916 14.7159C3.81819 15.9391 4.18723 17.1047 4.76514 18.1823C4.86993 19.7733 5.57404 21.3066 6.80581 22.4349C6.96696 22.5825 7.21703 22.5715 7.36463 22.4104C7.51218 22.2493 7.50116 21.9991 7.34011 21.8516C5.69738 20.3481 5.12917 18.019 5.84846 15.9527L6.55358 16.3392C5.854 18.4279 6.84219 20.9012 8.79938 21.9298C10.7268 23.027 13.3189 22.5208 14.7179 20.8137L15.4234 21.2004C14.9473 21.8002 14.354 22.2901 13.6884 22.6458C12.2126 23.4505 10.3386 23.5222 8.80112 22.8141C8.60194 22.724 8.36774 22.8126 8.27788 23.0117C8.18797 23.2107 8.27646 23.445 8.47553 23.5349C10.1967 24.3271 12.2912 24.2678 13.9598 23.3961C14.2 23.3844 14.4418 23.3643 14.6802 23.3352C16.1086 23.1611 17.4925 22.6709 18.7082 21.9131C19.1016 22.4046 19.6183 22.9953 20.3097 22.9438C20.8302 22.9226 21.3097 22.5518 21.4649 22.0519L21.9318 20.5984C21.9899 20.4175 22.1231 20.2706 22.2974 20.1951C22.6556 20.0081 23.8522 19.6191 24.0967 19.2884C24.3255 19.0335 24.4415 18.7047 24.423 18.3626C24.4046 18.0204 24.2541 17.706 23.9992 17.4771L23.796 17.2948C23.5089 17.0371 23.1889 16.8338 22.849 16.6872C23.3219 15.2925 23.4783 13.793 23.2994 12.3243C23.0733 10.4688 22.3304 8.72448 21.151 7.27998C20.0038 5.87503 18.4964 4.81107 16.7915 4.20283C16.5859 4.12953 16.3594 4.23679 16.2861 4.4425C16.2127 4.64822 16.32 4.8745 16.5257 4.94791C19.8003 6.11592 22.095 8.97908 22.5142 12.4199C22.68 13.7806 22.5331 15.1698 22.0911 16.46C21.5481 16.3639 20.9819 16.3993 20.4368 16.5744C19.8026 15.9474 19.3527 15.1582 19.1299 14.2782C19.0763 14.0664 18.8613 13.9382 18.6495 13.9917C18.4377 14.0453 18.3095 14.2604 18.3631 14.4722C18.6439 15.5817 19.237 16.5675 20.0782 17.323C20.1905 17.4239 20.3504 17.452 20.4904 17.3956C21.4436 17.0106 22.5107 17.2033 23.2675 17.8833C23.6471 18.124 23.8178 18.6465 23.3376 18.8826L21.983 19.4692C21.5996 19.6353 21.3063 19.9586 21.1786 20.3565L20.7118 21.81C20.6904 21.8764 20.6561 21.9363 20.6065 21.9914C20.4254 22.1931 20.1139 22.2098 19.9122 22.0287L19.7091 21.8463C18.9431 21.1586 18.6412 20.0768 18.9401 19.0904C18.9854 18.9411 18.9386 18.7792 18.8208 18.6769C17.954 17.9251 16.8869 17.4586 15.7349 17.3278C13.6982 17.0965 10.8567 16.4494 8.88618 14.68C8.1026 13.9765 7.42195 13.1768 6.8675 12.3194C9.52131 11.1663 11.5618 8.90436 12.4373 6.14793C13.3421 6.60577 14.2033 7.19329 14.9812 7.89186C15.8237 8.64828 16.543 9.63768 17.1317 10.8446C17.133 10.8474 17.1345 10.85 17.1358 10.8527C17.4147 11.4257 17.6647 12.0471 17.8837 12.7168C17.9516 12.9245 18.1749 13.0379 18.3826 12.9698C18.5902 12.9019 18.7034 12.6786 18.6355 12.4709C18.4463 11.8926 18.2348 11.3472 18.0018 10.835C18.5664 10.5024 19.3483 10.1258 19.509 9.42358C19.7758 8.54577 19.4096 7.6081 18.6184 7.14345L15.9574 5.58051C15.1476 5.10485 14.1296 5.19951 13.4211 5.78307C12.6746 5.34927 11.8925 4.99901 11.0953 4.74219C11.5167 4.62781 11.9472 4.54339 12.384 4.49018C13.1918 4.39167 14.0062 4.40132 14.8045 4.5186C15.021 4.55066 15.2216 4.40095 15.2533 4.18484C15.2851 3.96869 15.1357 3.76777 14.9195 3.73602C14.0514 3.60841 13.1662 3.59802 12.2883 3.70491C11.3901 3.81439 10.5156 4.04489 9.68695 4.38977C9.60189 4.37458 9.51677 4.36008 9.43166 4.34711C7.51703 4.05538 5.87462 4.3787 5.1453 5.19091C4.47758 5.93483 4.29997 7.39637 4.6554 9.07538ZM7.26248 16.7277L10.0681 18.2653L7.67666 19.7845C7.51034 19.5027 7.37787 19.1984 7.28374 18.8761C7.07549 18.1628 7.06927 17.4283 7.26248 16.7277ZM8.14721 20.4228L10.4388 18.967L10.5068 21.6814C10.0444 21.6134 9.5945 21.4635 9.17954 21.2361C8.78651 21.0207 8.43962 20.7453 8.14721 20.4228ZM11.2989 21.7162L11.2284 18.9013L14.0079 20.4246C13.3125 21.1859 12.3319 21.6573 11.2989 21.7162ZM8.35778 15.2687C10.4837 17.1775 13.4945 17.8695 15.6458 18.1138C16.5569 18.2173 17.4057 18.5639 18.1156 19.1203C17.9592 19.8329 18.0361 20.5702 18.3163 21.2259C17.4047 21.8006 16.4155 22.2011 15.3637 22.421C15.7284 22.0868 16.0558 21.7083 16.3367 21.2906C16.3987 21.1984 16.4191 21.0844 16.3928 20.9764C16.3665 20.8684 16.296 20.7765 16.1985 20.7231L14.8037 19.9586H14.8036L12.7451 18.8304L5.83486 15.0432C5.63943 14.9306 5.36853 15.0227 5.28252 15.2313C5.10333 15.6401 4.97133 16.0603 4.88316 16.485C4.67607 15.8841 4.53243 15.2608 4.45438 14.6201C4.27345 13.1349 4.45807 11.6502 4.98884 10.271C5.62746 12.1215 6.80433 13.8739 8.35778 15.2687ZM15.5569 6.26258L18.2179 7.82552C18.6926 8.10433 18.9123 8.6669 18.7523 9.19361C18.6625 9.63942 17.9842 9.89904 17.6524 10.1223C17.0547 8.9909 16.3384 8.04727 15.5097 7.30324C15.0789 6.91643 14.6237 6.56148 14.1502 6.24096C14.5809 6.00745 15.1167 6.00402 15.5569 6.26258ZM5.73403 5.71941C6.18048 5.22218 7.46008 4.84698 9.31264 5.12916C10.121 5.25235 10.9292 5.48448 11.7136 5.81344C10.9143 8.42854 8.9801 10.573 6.45871 11.6351C6.0526 10.8964 5.73862 10.1243 5.53122 9.34068C5.05175 7.52915 5.28763 6.21665 5.73403 5.71941Z" fill="black"/>
<path d="M7.70868 8.05904C8.21556 8.51445 9.00104 8.47448 9.45872 7.96485C9.91403 7.47838 9.86936 6.64955 9.36454 6.21476C8.85602 5.75829 8.07102 5.80048 7.6145 6.30894C7.15925 6.79547 7.20386 7.62429 7.70868 8.05904ZM8.20312 6.83745C8.36865 6.65309 8.65278 6.63864 8.83609 6.80338C9.01871 6.96063 9.03484 7.26043 8.87015 7.43635C8.70504 7.62023 8.42107 7.63553 8.23719 7.47042C8.05457 7.31316 8.03843 7.01337 8.20312 6.83745Z" fill="black"/>
</svg>
