<svg width="30" height="30" viewBox="0 0 30 30" fill="none" xmlns="http://www.w3.org/2000/svg">
<path d="M16.1303 6.47544C20.0932 6.60705 23.6594 10.2603 23.611 14.1409C23.6042 14.6761 24.0329 15.1145 24.5671 15.1212C24.571 15.1212 24.5758 15.1212 24.5797 15.1212C25.1081 15.1212 25.5406 14.6964 25.5474 14.1651C25.6094 9.20447 21.239 4.70834 16.1952 4.54189C15.6668 4.49834 15.2139 4.9435 15.1955 5.47673C15.1781 6.01092 15.5961 6.45802 16.1303 6.47544Z" fill="#B0B0B0"/>
<path d="M15.9028 9.69536C18.3677 9.98665 20.3574 12.0479 20.338 14.2912C20.3332 14.8263 20.7628 15.2628 21.297 15.2676C21.2999 15.2676 21.3028 15.2676 21.3057 15.2676C21.8361 15.2676 22.2686 14.8399 22.2735 14.3086C22.3006 11.1073 19.5444 8.17601 16.1293 7.77343C15.6019 7.70665 15.118 8.08988 15.0551 8.62117C14.9931 9.15149 15.3725 9.63343 15.9028 9.69536Z" fill="#B0B0B0"/>
<path d="M24.1712 18.7133L23.8925 18.5004C23.3845 18.0997 22.8532 17.7359 22.3393 17.3846L21.9967 17.1494C21.0541 16.501 20.157 16.2514 19.3345 16.4081C18.5612 16.5552 17.8906 17.0439 17.3419 17.8588C17.2122 18.0494 17.0893 18.2323 16.528 17.9826C15.5448 17.5462 14.6961 16.9936 14.0051 16.3404L12.3125 13.9288C12.027 13.261 12.1829 13.0607 12.5709 12.8023C13.0606 12.4752 14.0787 11.7949 14.0032 10.4304C13.9267 9.05329 11.2054 5.41361 9.90479 4.94619C9.31253 4.73232 8.69511 4.72748 8.06898 4.93651C6.65414 5.40393 5.63414 6.24296 5.12124 7.36361C4.62963 8.4378 4.64995 9.68038 5.17931 10.9539C7.88801 17.4784 12.7277 22.2494 19.5638 25.1352C19.9161 25.2843 20.277 25.3626 20.5161 25.4159L20.6796 25.4526C20.7687 25.4768 20.8616 25.4855 20.9535 25.4855C22.9383 25.4855 24.9609 23.6991 25.5425 22.082C26.2083 20.2375 24.9329 19.2833 24.1712 18.7133ZM23.7203 21.4259C23.3506 22.4546 22.0219 23.491 21.0338 23.5472C21.0009 23.5404 20.9661 23.5326 20.9283 23.5239C20.7396 23.4823 20.5045 23.431 20.3167 23.3517C13.9645 20.6701 9.47318 16.2484 6.96576 10.2107C6.6493 9.44716 6.61931 8.74167 6.88156 8.16974C7.16511 7.55135 7.78543 7.06845 8.67769 6.77425C8.78995 6.73748 8.89156 6.71812 8.98737 6.71812C9.0735 6.71812 9.15479 6.73361 9.23511 6.76361C9.91253 7.07522 11.9535 9.80522 12.0706 10.5388C12.0803 10.6965 12.0445 10.8272 11.4977 11.192C10.7661 11.6797 9.67447 12.7965 10.5851 14.8075C10.6093 14.8626 10.6393 14.9139 10.6741 14.9633L12.4751 17.5297C12.5109 17.5801 12.5506 17.6275 12.5941 17.6701C13.4603 18.5091 14.52 19.2088 15.7412 19.7517C17.039 20.3323 18.208 20.0372 18.9464 18.9417C19.1961 18.5701 19.4477 18.3581 19.6945 18.3107C20.069 18.2401 20.5548 18.5081 20.8974 18.7443L21.2448 18.9823C21.7354 19.3172 22.227 19.653 22.6925 20.0207C22.7961 20.103 22.9035 20.1823 23.0099 20.2626C23.8345 20.8801 23.8732 21.003 23.7203 21.4259Z" fill="#B0B0B0"/>
<path d="M21.9523 0H8.04774C3.68516 0 0 3.68613 0 8.04774V21.9513C0 26.3139 3.68516 30 8.04774 30H21.9523C26.3139 30 30 26.3139 30 21.9503V8.04774C30 3.68613 26.3148 0 21.9523 0ZM28.0645 21.9503C28.0645 25.2639 25.2658 28.0635 21.9523 28.0635H8.04774C4.73516 28.0635 1.93548 25.2648 1.93548 21.9503V8.04774C1.93548 4.73516 4.73516 1.93548 8.04774 1.93548H21.9523C25.2648 1.93548 28.0645 4.73419 28.0645 8.04774V21.9503Z" fill="#B0B0B0"/>
</svg>
