<svg width="20" height="20" viewBox="0 0 20 20" fill="none" xmlns="http://www.w3.org/2000/svg">
<path d="M10.6691 20C10.2059 20 9.74269 20 9.27949 20C9.00292 19.9164 8.71306 19.9238 8.43105 19.8761C6.20215 19.4992 4.28401 18.5249 2.74022 16.8724C0.576428 14.5566 -0.294226 11.7976 0.0868755 8.67286C0.37194 6.33646 1.39416 4.32672 3.13613 2.72961C5.79295 0.293796 8.9095 -0.496727 12.4274 0.297703C12.9771 0.421859 13.5102 0.608529 14.0174 0.865742C13.8869 0.878982 13.7589 0.877463 13.6306 0.879416C13.386 0.883323 13.1397 0.872905 12.8971 0.897215C11.7961 1.00813 10.7434 1.30181 9.7366 1.75915C7.73135 2.67057 6.20258 4.07928 5.2483 6.07295C4.41227 7.81983 4.18165 9.63312 4.75744 11.505C5.52988 14.0162 7.98462 15.9226 10.8438 15.5264C12.66 15.2749 13.9795 14.2983 14.8455 12.709C15.4276 11.6405 15.5862 10.494 15.3967 9.29256C15.2018 8.05598 14.6384 7.04037 13.6397 6.27134C12.903 5.70417 12.0581 5.36925 11.1702 5.13005C11.0535 5.09858 11.0254 5.053 11.0252 4.94447C11.0247 4.46607 11.1112 4.00309 11.2891 3.56094C11.8192 2.2421 12.7852 1.40252 14.1447 0.996627C14.2491 0.965371 14.327 0.967759 14.4233 1.01529C14.9816 1.29139 15.5087 1.61676 16.0004 1.99726C18.2757 3.75847 19.5923 6.06036 19.929 8.91683C19.9523 9.11522 19.9203 9.32056 20 9.51222C20 9.88165 20 10.2509 20 10.6203C19.9503 10.6396 19.9634 10.6843 19.9608 10.7208C19.8208 12.6754 19.164 14.4427 17.9797 16.0031C16.3251 18.1832 14.1378 19.486 11.4178 19.8908C11.1682 19.9279 10.911 19.9134 10.6691 20Z" fill="#A0A0A0"/>
</svg>
